<?xml version="1.0" encoding="utf-8"?>
<!-- Generator: Adobe Illustrator 12.0.1, SVG Export Plug-In . SVG Version: 6.00 Build 51448)  -->
<!DOCTYPE svg PUBLIC "-//W3C//DTD SVG 1.1//EN" "http://www.w3.org/Graphics/SVG/1.1/DTD/svg11.dtd" [
	<!ENTITY ns_svg "http://www.w3.org/2000/svg">
	<!ENTITY ns_xlink "http://www.w3.org/1999/xlink">
]>
<svg  version="1.1" id="Layer_1" xmlns="&ns_svg;" xmlns:xlink="&ns_xlink;" width="513.756" height="200.812"
	 viewBox="0 0 513.756 200.812" overflow="visible" enable-background="new 0 0 513.756 200.812" xml:space="preserve">
<g>
	<path d="M40.968,34.712c-1.401,1.908-3.015,3.562-4.839,4.964l-0.806,0.611c-0.131,0.098-0.408,0.302-0.831,0.611
		c-0.978,0.701-1.882,1.533-2.713,2.495c-0.293,0.032-0.919,0.106-1.878,0.22c-0.521,0.049-1.122,0.074-1.805,0.074
		c-4.993,0-9.408-1.84-13.246-5.521s-5.756-7.915-5.756-12.703c0-5.423,3.039-10.553,9.118-15.39
		c-1.807-0.195-3.475-0.293-5.004-0.293c-2.425,0-4.736,0.301-6.934,0.903C4.077,11.287,1.986,12.19,0,13.395
		c0.717-2.586,1.915-5.009,3.593-7.27c1.09-0.248,2.371-0.429,3.843-0.545c1.472-0.116,3.135-0.174,4.99-0.174
		c2.293,0,4.839,0.166,7.637,0.496V1.51L22.222,0c-0.44,2.164-0.66,4.002-0.66,5.515v0.61c5.751,0.406,13.304,1.536,22.656,3.388
		c-1.906,1.53-2.989,3.329-3.25,5.396c-2.151-0.684-5.328-1.481-9.532-2.393c-4.204-0.912-7.495-1.514-9.874-1.807v25.908
		c2.525,1.693,5.091,2.54,7.699,2.54c2.069,0,3.841-0.398,5.316-1.196s3.148-2.263,5.022-4.396L40.968,34.712z M20.062,35.591
		V10.489c-3.896,3.126-5.844,7.236-5.844,12.331c0,2.41,0.487,4.681,1.461,6.813C16.653,31.766,18.114,33.752,20.062,35.591z"/>
	<path d="M52.859,26.912v9.549c0.357,0.537,0.983,1.221,1.876,2.051c-1.757,1.484-3.238,3.116-4.441,4.894
		c-0.654-1.632-1.685-2.93-3.091-3.893c0.562-1.644,0.844-3.362,0.844-5.153V8.743C50.926,4.428,54.195,1.514,57.854,0
		c4.843,0,7.957,1.083,9.34,3.248c-0.781,1.514-1.978,2.719-3.589,3.614c-1.023-2.572-3.518-4.086-7.481-4.542
		c-1.267,1.254-2.128,2.638-2.583,4.152s-0.682,3.777-0.682,6.789v11.136c2.388-4.167,4.816-7.277,7.286-9.329
		c2.583,1.759,4.396,3.692,5.436,5.8s1.56,4.896,1.56,8.364c0,8.661-1.934,15.588-5.801,20.782l-3.509,0.61
		c3.103-3.875,4.654-10.338,4.654-19.391c0-4.998-1.275-8.482-3.826-10.452C56.985,21.792,55.052,23.835,52.859,26.912z"/>
	<path d="M90.146,32.405c-2.082,4.335-5.074,8.002-8.976,11.001c-3.731-2.053-6.221-4.094-7.467-6.124
		c-1.247-2.029-1.87-5.04-1.87-9.033c0-1.516,0.09-2.926,0.27-4.229c2.493-3.482,5.385-6.468,8.677-8.958
		c2.228,3.055,5.097,4.68,8.61,4.875l-1,2.86c-2.521,2.917-6.326,5.916-11.415,8.996c0.976,2.934,2.821,5.028,5.537,6.283
		c2.65-1.63,4.797-3.846,6.439-6.649L90.146,32.405z M76.487,29.569c3.87-2.347,6.691-4.465,8.464-6.356
		c-2.439-0.505-4.756-1.743-6.952-3.715c-1.09,1.972-1.634,4.318-1.634,7.04C76.365,27.223,76.406,28.233,76.487,29.569z"/>
	<path d="M117.445,40.242c-3.6-1.545-6.426-3.871-8.478-6.979c-2.053-3.107-3.079-6.612-3.079-10.517
		c0-2.098,0.472-4.685,1.416-7.759c2.657-3.153,5.852-5.664,9.584-7.533V3.027l2.647-1.496c-0.765,3.827-1.147,7.401-1.147,10.723
		v0.928c2.572-3.428,5.054-5.897,7.447-7.408l0.562-0.024c4.85,0,8.895,1.654,12.133,4.962c3.239,3.309,4.858,7.434,4.858,12.375
		c0,1.805-0.236,3.715-0.708,5.73c-3.63,4.638-8.203,8.096-13.72,10.374c1.937-0.211,3.792-0.317,5.566-0.317
		c4.541,0,8.35,1.205,11.426,3.613c-1.693,0.391-3.288,1.645-4.785,3.762c-2.621-2.312-6.429-3.469-11.426-3.469
		c-2.344,0-4.753,0.228-7.227,0.684c0.83-1.677,2.116-3.288,3.858-4.835c3.597-1.269,6.478-3.155,8.643-5.66
		s3.248-5.205,3.248-8.101c0-3.838-1.197-7.156-3.589-9.954s-5.233-4.197-8.521-4.197c-2.702,0-5.291,1.74-7.765,5.22v18.978
		c1.302,0.618,2.352,0.927,3.149,0.927c1.498,0,2.857-0.585,4.078-1.756c-0.472-1.431-1.408-2.553-2.808-3.366
		c1.058-2.049,2.246-3.439,3.565-4.171c1.432,0.895,2.571,2.285,3.418,4.171c-1.317,2.523-2.952,4.533-4.904,6.03
		S120.454,39.412,117.445,40.242z M116.889,34.161V9.08c-1.746,1.464-3.162,3.44-4.247,5.929c-1.085,2.489-1.628,4.994-1.628,7.514
		C111.014,27.37,112.972,31.25,116.889,34.161z"/>
	<path d="M163.435,34.048c-2.266,4.105-4.744,7.225-7.433,9.358c-2.086-1.352-3.729-3.343-4.926-5.974
		c-1.198-2.631-1.797-5.559-1.797-8.784c0-3.144,0.334-5.986,1.003-8.527c-1.66,0.212-3.174,1.165-4.541,2.858l-0.854-1.099
		c1.937-3.079,4.526-5.351,7.769-6.817c0.912,1.303,2.101,2.346,3.567,3.127c-1.399,2.118-2.099,5.18-2.099,9.188
		c0,4.675,1.253,8.023,3.759,10.042c1.908-1.368,3.759-3.331,5.554-5.889l-0.062-1.93c0-2.688,0.215-5.042,0.646-7.062
		c-1.03-1.189-1.88-2.052-2.55-2.59c1.481-1.189,3.003-2.818,4.567-4.887c0.843,1.906,2.036,3.299,3.579,4.178
		c-0.912,3.111-1.367,6.744-1.367,10.898c0,2.851,0.26,5.05,0.781,6.597c1.139-0.488,2.384-1.271,3.735-2.346l1.074,1.222
		c-2.556,2.102-4.856,4.415-6.903,6.939c-0.146,0.195-0.373,0.48-0.681,0.855C164.617,41.745,163.678,38.625,163.435,34.048z"/>
	<path d="M185.249,16.281c-1.267,2.376-1.899,5.07-1.899,8.082v7.227c0,2.067,0.227,3.785,0.682,5.152
		c1.25-0.569,2.492-1.375,3.727-2.417l0.998,1.318c-3.543,3.028-6.045,5.616-7.508,7.764c-1.807-2.246-2.711-5.273-2.711-9.083
		v-5.078c0-3.516,0.537-6.405,1.612-8.667c-0.749-0.179-1.376-0.423-1.882-0.732c-1.598,1.286-2.868,2.735-3.813,4.346l-1.198-0.928
		c1.744-3.607,3.911-6.341,6.503-8.202C181.174,15.759,183.004,16.165,185.249,16.281z M177.631,10.562
		c0.293-1.268,0.75-2.552,1.371-3.853c2.389-2.669,4.932-4.802,7.629-6.397c-1.085,1.921-1.797,3.874-2.137,5.86
		C181.986,7.424,179.699,8.888,177.631,10.562z"/>
	<path d="M208.37,32.347c-1.934,4.192-4.915,7.878-8.942,11.059c-3.551-1.762-5.99-3.751-7.316-5.97
		c-1.328-2.218-1.991-5.423-1.991-9.616c0-0.783,0.065-2.022,0.196-3.719c2.475-3.476,5.203-6.489,8.186-9.04
		c1.429,1,2.955,1.5,4.58,1.5c0.73,0,1.482-0.101,2.254-0.302s1.572-0.504,2.4-0.907c-0.309,1.572-0.975,3.176-1.998,4.812
		c-0.585,0.195-1.194,0.341-1.828,0.438c-0.633,0.098-1.291,0.146-1.973,0.146c-1.82,0-3.729-0.5-5.727-1.5
		c-1.04,1.646-1.56,4.033-1.56,7.161c0,5.98,2.055,9.874,6.165,11.683c2.518-1.571,4.638-3.812,6.359-6.725L208.37,32.347z"/>
	<path d="M217.654,30.25v6.211c0.357,0.538,0.984,1.223,1.879,2.054c-1.758,1.483-3.24,3.114-4.443,4.891
		c-0.654-1.63-1.686-2.926-3.092-3.888c0.562-1.645,0.844-3.363,0.844-5.154V8.741c2.881-4.313,6.152-7.227,9.814-8.741
		c4.846,0,7.961,1.083,9.344,3.247c-0.781,1.514-1.977,2.718-3.587,3.613c-1.024-2.571-3.521-4.085-7.489-4.541
		c-1.27,1.253-2.131,2.637-2.586,4.151c-0.456,1.514-0.684,3.776-0.684,6.787v10.84c2.261-4.46,5.311-7.471,9.148-9.034
		c0.488,2.849,1.805,5.379,3.953,7.593l-0.586,1.49l-6.1,3.662c2.261,0.652,3.891,1.589,4.892,2.811
		c1,1.222,1.948,3.438,2.843,6.648c1.138-0.456,2.023-0.864,2.658-1.223l0.879,1.418c-3.722,2.005-6.565,3.986-8.531,5.942
		c0.125-1.174,0.188-2.152,0.188-2.935C226.998,34.032,223.883,30.625,217.654,30.25z M217.654,29.719l8.881-5.182
		c-1.123-1.139-1.937-2.482-2.44-4.029c-2.521,1.253-4.668,3.418-6.44,6.495V29.719z"/>
	<path d="M245.812,43.688c0.326-1.82,0.961-3.307,1.904-4.46c3.028-0.912,5.604-2.633,7.729-5.165
		c2.125-2.531,3.188-5.148,3.188-7.851c0-2.442-1.303-3.94-3.907-4.494c1.27-1.284,2.67-2.089,4.2-2.415
		c-1.107-5.723-3.565-8.584-7.375-8.584c-1.041,0-2.088,0.195-3.138,0.585c-1.05,0.391-2.112,0.984-3.187,1.78
		c0.114-2.281,0.684-4.277,1.709-5.988c0.977-0.457,1.921-0.795,2.832-1.016s1.782-0.331,2.612-0.331
		c2.669,0,4.874,0.692,6.616,2.077c1.74,1.385,3.254,3.658,4.541,6.818c0.75-1.922,2.02-3.718,3.808-5.388s3.687-2.839,5.694-3.507
		c0,4.122,1.348,6.99,4.043,8.603l-0.73,2.024c-1.84,2.163-4.006,4.13-6.497,5.902c0.765-0.082,1.415-0.123,1.952-0.123
		c2.828,0,5.158,0.708,6.988,2.124c1.829,1.416,2.744,3.222,2.744,5.419c0,3.141-2.18,6.062-6.539,8.764l-1.195,0.757
		c-2.018,1.253-3.562,2.742-4.636,4.467c-1.563-0.646-3.192-1.13-4.886-1.453c-1.695-0.323-3.453-0.484-5.277-0.484
		C253.973,41.75,249.574,42.396,245.812,43.688z M253.773,38.101c2.331-0.588,4.875-0.882,7.629-0.882
		c1.713,0,3.383,0.167,5.014,0.5c1.63,0.333,3.22,0.833,4.769,1.5c3.591-2.325,5.386-4.927,5.386-7.805
		c0-1.561-0.538-2.817-1.614-3.769s-2.511-1.427-4.304-1.427c-2.152,0-4.189,0.561-6.113,1.683c0.082-1.434,0.303-2.582,0.662-3.445
		c2.809-2.278,5.314-4.72,7.52-7.324c-1.861-1.496-2.996-3.374-3.404-5.633c-2.222,0.878-3.985,2.585-5.292,5.122
		c0.114,1.025,0.171,1.92,0.171,2.685C264.195,26.449,260.721,32.714,253.773,38.101z"/>
	<path d="M293.548,28.548v7.918c0.747,0.929,1.623,1.784,2.63,2.566c-1.675,1.32-3.024,2.778-4.049,4.374
		c-1.142-1.596-2.561-2.883-4.256-3.861c0.554-1.792,0.831-3.519,0.831-5.181v-9.066c0-2.215-0.384-3.82-1.149-4.814
		c-1.371,0.929-2.561,2.134-3.572,3.617l-1.247-1.026c1.68-2.947,4.052-5.618,7.118-8.012c2.186,2.28,3.417,5.293,3.694,9.039
		c1.299-4.006,3.556-7.019,6.771-9.039c1.299,1.611,2.646,2.465,4.042,2.562c-0.503,2.444-1.267,4.26-2.289,5.45
		c-1.413-0.44-2.614-1.149-3.604-2.126C296.211,22.659,294.57,25.192,293.548,28.548z"/>
	<path d="M316.322,43.406c-3.193-0.814-5.812-2.484-7.855-5.009c-2.045-2.525-3.066-5.375-3.066-8.552
		c0-4.007,2.248-7.721,6.744-11.142l0.83-0.66c1.466-1.091,2.582-2.085,3.348-2.981c3.283,0.961,5.924,2.688,7.924,5.18
		c1.998,2.492,2.998,5.302,2.998,8.43c0,4.007-2.316,7.762-6.948,11.264l-1.048,0.806C318.061,41.639,317.086,42.527,316.322,43.406
		z M318.615,39.301c2.731-2.183,4.098-4.928,4.098-8.234c0-2.492-0.793-4.801-2.379-6.927c-1.585-2.126-3.727-3.743-6.426-4.851
		c-2.651,1.971-3.977,4.659-3.977,8.063c0,2.558,0.776,4.903,2.329,7.037S315.932,38.161,318.615,39.301z"/>
	<path d="M340.635,43.406c-2.264-8.275-5.391-15.76-9.381-22.455c-0.978,0.863-1.841,1.971-2.59,3.323l-1.271-0.586
		c1.53-3.958,3.485-6.833,5.863-8.625c1.548,1.776,3.249,4.651,5.106,8.625c1.434-3.779,3.453-6.654,6.059-8.625
		c3.502,0.538,6.164,2.655,7.988,6.353c1.464-2.574,3.27-4.691,5.416-6.353c2.129,0.13,4.062,1.218,5.803,3.262
		c1.738,2.044,2.608,4.256,2.608,6.634c0,5.555-2.991,10.458-8.974,14.709l-1.561,1.1c-1.512,1.075-2.609,1.955-3.293,2.639
		c-0.895-3.453-1.832-6.329-2.809-8.625c-1.107,1.515-2.834,3.209-5.18,5.083l-1.002,0.782
		C342.492,41.395,341.563,42.315,340.635,43.406z M344.056,38.25c2.851-3.209,4.275-6.728,4.275-10.556
		c0-3.763-1.556-6.45-4.667-8.063c-1.922,1.629-3.453,3.519-4.592,5.668C341.58,30.757,343.241,35.074,344.056,38.25z
		 M355.777,38.837c3.869-2.802,5.804-6.442,5.804-10.922c0-3.991-1.602-6.784-4.804-8.381c-1.48,1.108-2.756,2.419-3.829,3.934
		c0.032,0.196,0.057,0.351,0.073,0.464c0.081,0.44,0.122,0.831,0.122,1.173c0,1.32-0.245,2.811-0.733,4.472
		C353.809,32.444,354.932,35.53,355.777,38.837z"/>
	<path d="M376.945,27.416v9.046c0.373,0.554,0.998,1.239,1.875,2.054c-1.756,1.483-3.236,3.114-4.439,4.89
		c-0.652-1.613-1.678-2.909-3.076-3.888c0.552-1.646,0.828-3.366,0.828-5.159V24.091c0-1.222-0.22-2.379-0.658-3.472
		c-1.3,0.929-2.438,2.086-3.412,3.472l-1.242-0.978c1.626-3.155,4.146-5.838,7.561-8.05c1.547,2.147,2.401,5.157,2.564,9.028
		c1.818-3.774,4.019-6.783,6.601-9.028c3.077,2.417,5.649,3.625,7.717,3.625c0.179,0,0.423-0.008,0.732-0.024
		c-1.304,3.146-1.956,6.52-1.956,10.122v1.296c0,3.064,0.383,5.33,1.149,6.797c1.124-0.552,2.314-1.42,3.569-2.605l1.125,1.188
		c-2.918,2.461-5.395,5.11-7.432,7.946c-2.15-2.673-3.225-6.471-3.225-11.394v-1.638c0-3.081,0.229-5.599,0.684-7.555
		c-1.201-0.261-2.494-0.904-3.875-1.931C379.746,22.6,378.049,24.775,376.945,27.416z"/>
	<path d="M0.594,106.462c0.861-1.81,2.022-3.187,3.485-4.132c4.354,0.473,7.887,1.956,10.6,4.449
		c1.318-0.978,1.978-2.519,1.978-4.621c0-2.445-0.74-6.544-2.22-12.298l-0.805-3.203h-0.634c-4.126,0-7.611,0.44-10.454,1.32
		c0.649-1.481,1.421-2.645,2.315-3.491c2.112-0.553,4.532-0.829,7.262-0.829h0.658l-1.121-3.821
		c-0.536-1.801-0.926-3.448-1.17-4.941c0.749-1.5,2.018-3.142,3.809-4.926c1.79-1.785,3.572-3.19,5.347-4.218
		c1.075,1,2.305,1.5,3.69,1.5c0.749,0,1.507-0.127,2.272-0.381s1.539-0.627,2.321-1.119c-0.195,1.488-0.798,3.286-1.808,5.395
		c-0.668,0.212-1.304,0.372-1.907,0.478c-0.604,0.106-1.174,0.159-1.711,0.159c-2.152,0-4.116-0.645-5.893-1.935
		c-0.863,1.056-1.295,2.127-1.295,3.215c0,1.153,0.668,3.93,2.005,8.33l0.685,2.265h1.638l2.419-0.031
		c2.688,0,5.189,0.287,7.503,0.86c-0.733,0.521-1.563,1.489-2.491,2.904c-1.857-0.489-4.334-0.733-7.43-0.733h-0.807l0.392,1.32
		c1.599,5.494,2.399,9.822,2.399,12.984c0,0.375-0.041,1.003-0.123,1.883c-0.652,0.862-1.898,1.959-3.739,3.293l-1.149,0.805
		c-1.075,0.78-2.354,2.008-3.836,3.684c-4.955-2.792-8.773-4.188-11.454-4.188L0.594,106.462z"/>
	<path d="M42.299,103.406c-3.193-0.814-5.812-2.484-7.855-5.009c-2.044-2.525-3.066-5.375-3.066-8.552
		c0-4.007,2.248-7.721,6.744-11.142l0.831-0.66c1.466-1.091,2.582-2.085,3.348-2.981c3.283,0.961,5.924,2.688,7.923,5.18
		s2.999,5.302,2.999,8.43c0,4.007-2.316,7.762-6.948,11.264l-1.048,0.806C44.038,101.639,43.062,102.527,42.299,103.406z
		 M44.592,99.301c2.731-2.183,4.098-4.928,4.098-8.234c0-2.492-0.793-4.801-2.378-6.927s-3.728-3.743-6.427-4.851
		c-2.651,1.971-3.976,4.659-3.976,8.063c0,2.558,0.776,4.903,2.329,7.037S41.908,98.161,44.592,99.301z"/>
	<path d="M65.761,93.438c-2.213,5.621-5.802,9.245-10.766,10.874l-0.562-1.369c2.197-1.271,4.138-3.246,5.823-5.926
		s2.82-5.583,3.406-8.711l-1.001-2.712c-1.009-2.671-2.083-4.479-3.223-5.425c-1.125,0.685-2.168,1.76-3.13,3.226l-1.312-1.083
		c1.627-2.929,3.645-5.346,6.054-7.25c2.441,1.385,4.289,3.804,5.542,7.257l1.196,3.274c1.53-4.968,3.719-8.479,6.567-10.532
		c0.618,1.516,1.748,2.509,3.391,2.981c-0.376,1.434-1.095,2.859-2.156,4.276c-0.778-0.261-1.621-0.823-2.528-1.686
		c-2.067,1.825-3.5,4.244-4.297,7.258l1.636,4.228c1.237,3.193,2.474,5.351,3.711,6.475c1.444-1.042,2.573-1.979,3.385-2.81
		l1.156,1.247c-0.244,0.212-1.074,0.928-2.49,2.149c-1.758,1.499-3.003,2.907-3.735,4.226c-2.507-1.498-4.436-4.039-5.786-7.623
		L65.761,93.438z"/>
	<path d="M91.064,106.098c0.913-2.11,2.094-3.611,3.543-4.504c3.227,0,5.989,1.689,8.287,5.067c1.571-1.302,2.357-3.237,2.357-5.808
		c0-4.393-0.445-7.723-1.335-9.993c-0.89-2.27-2.348-3.787-4.372-4.551c0.848-1.123,2.022-2.108,3.522-2.955
		c-0.197-1.042-0.385-2.547-0.565-4.517c-0.017-0.179-0.065-0.594-0.146-1.245c1.317-2.588,3.262-4.908,5.832-6.958
		c-1.905,0.244-3.565,0.366-4.981,0.366c-1.921,0-3.646-0.26-5.177-0.781c0.831-1.807,1.906-3.297,3.226-4.469
		c1.806,0.604,4.181,0.906,7.125,0.906c2.229,0,4.311-0.302,6.247-0.906c-0.341,1.466-0.804,2.679-1.388,3.639
		c-3.825,1.123-5.737,3.386-5.737,6.788c0,0.814,0.082,1.823,0.245,3.028c0.245,1.872,0.465,3.597,0.661,5.176
		c0.114,1.042,0.204,1.767,0.269,2.173l0.71,4.492c0.489,3.174,0.84,6.446,1.053,9.815c-1.026,1.953-2.451,3.702-4.275,5.248
		l-0.977,0.806c-0.179,0.162-0.472,0.382-0.879,0.659c-1.515,1.025-2.891,2.042-4.128,3.051c-2.444-3.083-5.132-4.625-8.065-4.625
		C91.92,106,91.57,106.032,91.064,106.098z"/>
	<path d="M131.965,94.048c-2.266,4.105-4.744,7.225-7.433,9.358c-2.086-1.352-3.729-3.343-4.926-5.974
		c-1.198-2.631-1.797-5.559-1.797-8.784c0-3.144,0.334-5.986,1.003-8.527c-1.66,0.212-3.174,1.165-4.541,2.858l-0.854-1.099
		c1.937-3.079,4.526-5.351,7.769-6.817c0.912,1.303,2.101,2.346,3.567,3.127c-1.399,2.118-2.099,5.18-2.099,9.188
		c0,4.675,1.253,8.023,3.759,10.042c1.908-1.368,3.759-3.331,5.554-5.889l-0.062-1.93c0-2.688,0.215-5.042,0.646-7.062
		c-1.03-1.189-1.88-2.052-2.55-2.59c1.481-1.189,3.003-2.818,4.567-4.887c0.843,1.906,2.036,3.299,3.579,4.178
		c-0.912,3.111-1.367,6.744-1.367,10.898c0,2.851,0.26,5.05,0.781,6.597c1.139-0.488,2.384-1.271,3.735-2.346l1.074,1.222
		c-2.556,2.102-4.856,4.415-6.903,6.939c-0.146,0.195-0.373,0.48-0.681,0.855C133.147,101.745,132.208,98.625,131.965,94.048z"/>
	<path d="M151.286,87.426v9.041c0.375,0.554,1.001,1.238,1.881,2.053c-1.759,1.482-3.241,3.111-4.446,4.887
		c-0.651-1.612-1.677-2.908-3.076-3.885c0.552-1.645,0.829-3.364,0.829-5.156V84.103c0-1.222-0.22-2.378-0.658-3.47
		c-1.3,0.929-2.437,2.085-3.412,3.47l-1.243-0.977c1.626-3.16,4.146-5.848,7.56-8.063c1.71,2.395,2.565,5.408,2.565,9.041
		c2.15-4.512,4.765-7.525,7.844-9.041c1.856,0.766,3.123,1.788,3.798,3.066c0.676,1.279,1.014,3.27,1.014,5.974
		c1.98-3.893,4.691-6.907,8.132-9.041c1.467,1.857,3.454,3.095,5.963,3.714c-1.271,2.639-1.907,5.987-1.907,10.042v1.295
		c0,3.226,0.358,5.49,1.075,6.793c1.174-0.57,2.38-1.441,3.619-2.614l1.149,1.148c-3.374,3.079-5.859,5.734-7.456,7.965
		c-2.134-2.867-3.2-6.695-3.2-11.484V90.31c0-3.404,0.253-6.002,0.757-7.794c-1.169-0.635-2.095-1.246-2.777-1.833
		c-2.532,1.89-4.317,4.178-5.355,6.866v6.744c0,1.417,0.194,3.144,0.584,5.18c-1.791,0.847-3.818,2.159-6.081,3.934
		c0.456-2.883,0.684-5.921,0.684-9.114v-9.554c0-1.612-0.407-2.964-1.222-4.056C155.269,81.595,153.062,83.843,151.286,87.426z"/>
	<path d="M187.062,112.414v-11.305c-2.544,0.391-4.534,1.172-5.969,2.344l1.027-3.174c1.614-1.367,3.262-2.279,4.941-2.735V85.778
		c0-2.376-0.392-4.125-1.175-5.248c-1.32,0.781-2.512,1.961-3.57,3.54l-1.224-1.025c1.858-3.026,4.223-5.687,7.093-7.982
		c2.459,2.555,3.688,5.664,3.688,9.325c1.966-3.661,4.363-6.77,7.191-9.325c2.522,1.058,4.511,2.604,5.968,4.638
		c1.456,2.034,2.185,4.272,2.185,6.713c0,4.312-1.766,8.292-5.296,11.937l-1.172,1.196c-0.943,0.944-1.854,2.018-2.732,3.222
		c-2.08-0.879-4.129-1.432-6.144-1.66v0.293c0,2.881-1.177,6.747-3.531,11.598L187.062,112.414z M191.874,97.031
		c2.47,0.13,4.925,0.676,7.362,1.636c2.112-2.896,3.169-6.094,3.169-9.593c0-4.003-1.561-6.794-4.681-8.373
		c-1.82,1.318-3.771,3.393-5.851,6.225V97.031z"/>
	<path d="M217.877,103.406c-1.8-3.562-4.207-5.344-7.223-5.344c-0.617,0-1.266,0.13-1.946,0.391
		c0.581-2.071,1.428-3.628,2.541-4.672c4.087,0,7.327,2.021,9.721,6.062c2.242-1.694,3.363-3.911,3.363-6.648
		c0-1.352-0.303-2.472-0.908-3.36s-1.522-1.544-2.749-1.968l-2.799,2.678c-0.471,0.033-0.812,0.049-1.022,0.049
		c-1.98,0-3.547-0.755-4.699-2.267s-1.729-3.559-1.729-6.143c2.077-3.263,4.561-5.637,7.45-7.122
		c0.801,0.44,1.606,0.774,2.416,1.002s1.615,0.342,2.416,0.342c0.851,0,1.685-0.114,2.502-0.342
		c0.818-0.228,1.619-0.562,2.404-1.002c-0.425,1.747-1.168,3.2-2.229,4.359c-0.736,0.359-1.49,0.629-2.258,0.809
		c-0.77,0.18-1.555,0.27-2.356,0.27c-0.998,0-1.968-0.159-2.909-0.477c-0.94-0.317-1.861-0.794-2.76-1.43
		c-0.41,0.7-0.614,1.604-0.614,2.71c0,3.256,1.53,4.883,4.591,4.883l2.577-2.539c2.402,0.146,4.204,0.847,5.405,2.101
		s1.802,3.07,1.802,5.447c0,2.134-0.474,4.251-1.421,6.352c-1.259,0.944-2.697,1.798-4.316,2.562l-1.275,0.61
		C220.346,101.438,219.021,102.333,217.877,103.406z"/>
	<path d="M268.451,103.103c-1.252,0.39-2.74,0.585-4.465,0.585c-5.354,0-9.949-1.972-13.789-5.917s-5.759-8.667-5.759-14.166
		c0-2.896,0.481-5.824,1.444-8.785c2.641-2.903,5.837-5.391,9.587-7.463v-4.337l2.719-1.487c-0.812,3.615-1.219,7.174-1.219,10.675
		v1.221c2.356-3.358,4.811-5.917,7.362-7.678c5.17,0,9.396,1.604,12.681,4.811s4.926,7.334,4.926,12.381
		c0,2.866-0.537,5.666-1.61,8.401c-0.163,0.179-2.041,1.757-5.634,4.733l-0.999,0.854
		C271.354,98.849,269.605,100.907,268.451,103.103z M255.47,95.443V68.981c-3.812,3.467-5.719,8.259-5.719,14.378
		c0,2.181,0.477,4.281,1.43,6.299S253.563,93.604,255.47,95.443z M256.97,96.468c2.698,1.709,5.274,2.563,7.728,2.563
		c3.494,0,6.387-1.322,8.679-3.966c2.292-2.644,3.438-5.976,3.438-9.995c0-3.954-1.179-7.334-3.535-10.141s-5.2-4.21-8.532-4.21
		c-2.746,0-5.339,1.75-7.776,5.248V96.468z M265.551,80.496c1.092,1.811,2.395,3.116,3.91,3.916c-1.516,0.8-2.818,2.113-3.91,3.94
		c-1.108-1.827-2.42-3.14-3.936-3.94C263.131,83.612,264.442,82.307,265.551,80.496z"/>
	<path d="M295.137,103.406c-1.27-4.463-2.815-8.841-4.638-13.133c-1.823-4.292-3.45-7.383-4.882-9.273
		c-1.009,0.717-1.799,1.759-2.367,3.127l-1.27-0.562c1.041-3.274,3.002-6.108,5.883-8.503c1.529,2.004,3.156,4.838,4.881,8.503
		c1.822-3.486,4.32-6.32,7.494-8.503c2.539,0.407,4.631,1.527,6.275,3.36s2.467,3.954,2.467,6.365c0,2.933-0.736,5.559-2.21,7.88
		s-3.96,4.777-7.458,7.367l-1.295,0.929C296.91,101.777,295.95,102.592,295.137,103.406z M298.725,98.568
		c1.578-1.075,2.88-2.619,3.905-4.63s1.538-4.036,1.538-6.072c0-4.023-1.668-6.792-5.004-8.308c-2.344,1.303-4.23,3.225-5.662,5.766
		C295.422,89.006,297.162,93.421,298.725,98.568z"/>
	<path d="M330.576,92.405c-2.082,4.335-5.074,8.002-8.977,11.001c-3.73-2.053-6.221-4.094-7.467-6.124s-1.869-5.04-1.869-9.033
		c0-1.516,0.09-2.926,0.27-4.229c2.493-3.482,5.385-6.468,8.677-8.958c2.228,3.055,5.097,4.68,8.61,4.875l-1,2.86
		c-2.521,2.917-6.326,5.916-11.416,8.996c0.977,2.934,2.821,5.028,5.537,6.283c2.65-1.63,4.797-3.846,6.439-6.649L330.576,92.405z
		 M316.917,89.569c3.87-2.347,6.691-4.465,8.464-6.356c-2.439-0.505-4.756-1.743-6.951-3.715c-1.09,1.972-1.635,4.318-1.635,7.04
		C316.795,87.223,316.836,88.233,316.917,89.569z"/>
	<path d="M341.863,88.548v7.918c0.746,0.929,1.623,1.784,2.63,2.566c-1.675,1.32-3.024,2.778-4.049,4.374
		c-1.142-1.596-2.561-2.883-4.257-3.861c0.555-1.792,0.832-3.519,0.832-5.181v-9.066c0-2.215-0.383-3.82-1.15-4.814
		c-1.369,0.929-2.561,2.134-3.57,3.617l-1.248-1.026c1.68-2.947,4.053-5.618,7.119-8.012c2.185,2.28,3.416,5.293,3.693,9.039
		c1.299-4.006,3.555-7.019,6.77-9.039c1.299,1.611,2.646,2.465,4.043,2.562c-0.504,2.444-1.267,4.26-2.289,5.45
		c-1.412-0.44-2.613-1.149-3.604-2.126C344.525,82.659,342.886,85.192,341.863,88.548z"/>
	<path d="M40.968,154.712c-1.401,1.907-3.015,3.562-4.839,4.964l-0.806,0.611c-0.131,0.099-0.408,0.303-0.831,0.611
		c-0.978,0.701-1.882,1.533-2.713,2.495c-0.293,0.032-0.919,0.106-1.878,0.22c-0.521,0.049-1.122,0.074-1.805,0.074
		c-4.993,0-9.408-1.84-13.246-5.521s-5.756-7.915-5.756-12.703c0-5.423,3.039-10.553,9.118-15.39
		c-1.807-0.195-3.475-0.293-5.004-0.293c-2.425,0-4.736,0.301-6.934,0.903s-4.288,1.506-6.274,2.71
		c0.717-2.586,1.915-5.009,3.593-7.27c1.09-0.248,2.371-0.43,3.843-0.545c1.472-0.115,3.135-0.174,4.99-0.174
		c2.293,0,4.839,0.166,7.637,0.496v-4.393l2.16-1.51c-0.44,2.164-0.66,4.002-0.66,5.516v0.609
		c5.751,0.406,13.304,1.535,22.656,3.389c-1.906,1.529-2.989,3.328-3.25,5.396c-2.151-0.684-5.328-1.481-9.532-2.394
		c-4.204-0.911-7.495-1.514-9.874-1.807v25.908c2.525,1.693,5.091,2.539,7.699,2.539c2.069,0,3.841-0.398,5.316-1.196
		s3.148-2.263,5.022-4.396L40.968,154.712z M20.062,155.592V130.49c-3.896,3.126-5.844,7.236-5.844,12.331
		c0,2.41,0.487,4.681,1.461,6.812C16.653,151.766,18.114,153.752,20.062,155.592z"/>
	<path d="M52.859,146.913v9.549c0.357,0.537,0.983,1.221,1.876,2.051c-1.757,1.484-3.238,3.116-4.441,4.895
		c-0.654-1.632-1.685-2.93-3.091-3.893c0.562-1.645,0.844-3.362,0.844-5.153v-25.618c2.879-4.314,6.148-7.229,9.808-8.742
		c4.843,0,7.957,1.083,9.34,3.248c-0.781,1.514-1.978,2.719-3.589,3.614c-1.023-2.572-3.518-4.087-7.481-4.542
		c-1.267,1.254-2.128,2.637-2.583,4.151s-0.682,3.776-0.682,6.788v11.137c2.388-4.168,4.816-7.277,7.286-9.328
		c2.583,1.758,4.396,3.691,5.436,5.8s1.56,4.896,1.56,8.364c0,8.661-1.934,15.588-5.801,20.782l-3.509,0.61
		c3.103-3.875,4.654-10.338,4.654-19.391c0-4.998-1.275-8.482-3.826-10.452C56.985,141.792,55.052,143.835,52.859,146.913z"/>
	<path d="M90.146,152.406c-2.082,4.335-5.074,8.003-8.976,11.001c-3.731-2.053-6.221-4.094-7.467-6.123
		c-1.247-2.029-1.87-5.041-1.87-9.033c0-1.516,0.09-2.926,0.27-4.23c2.493-3.481,5.385-6.467,8.677-8.957
		c2.228,3.055,5.097,4.68,8.61,4.875l-1,2.86c-2.521,2.917-6.326,5.916-11.415,8.996c0.976,2.934,2.821,5.028,5.537,6.282
		c2.65-1.629,4.797-3.846,6.439-6.648L90.146,152.406z M76.487,149.57c3.87-2.347,6.691-4.466,8.464-6.356
		c-2.439-0.504-4.756-1.742-6.952-3.715c-1.09,1.973-1.634,4.318-1.634,7.04C76.365,147.223,76.406,148.234,76.487,149.57z"/>
	<path d="M102.295,163.688c0.195-1.477,0.757-2.979,1.684-4.505c2.066-0.407,3.978-1.188,5.736-2.345
		c1.773-1.172,3.339-2.876,4.698-5.114c1.358-2.238,2.038-4.236,2.038-5.995c0-2.115-1.229-3.516-3.686-4.199
		c1.712-1.611,3.513-2.506,5.404-2.686v-0.953c0-1.873-0.278-3.77-0.835-5.691c2.525-2.932,5.352-5.081,8.481-6.449
		c0.601,0.749,1.495,1.637,2.681,2.662l0.756,0.685c2.47,2.198,3.859,4.796,4.167,7.793c-1.008,1.059-1.853,1.774-2.535,2.149
		c-0.406-2.003-1.592-3.835-3.558-5.496l-0.829-0.709c-1.17-0.992-2.258-1.791-3.266-2.394v3.126c0,4.477-0.354,8.002-1.063,10.574
		s-2.009,5.087-3.899,7.545c-2.298,2.947-4.824,5.193-7.579,6.74c2.962-0.701,6.275-1.051,9.937-1.051
		c5.225,0,9.604,0.758,13.136,2.271c-1.431,1.169-2.585,2.516-3.463,4.041c-4.411-1-8.611-1.5-12.599-1.5
		C111.06,162.188,105.925,162.688,102.295,163.688z"/>
	<path d="M153.428,153.893c-2.118,4.238-4.439,7.41-6.965,9.514c-2.329-1.173-4.271-3.123-5.827-5.852s-2.333-5.551-2.333-8.467
		c0-2.183,0.781-4.443,2.344-6.781c1.563-2.337,3.899-4.752,7.009-7.244c1.318,0.388,2.579,0.683,3.783,0.885
		s2.351,0.303,3.441,0.303c2.131,0,4.613-0.396,7.444-1.188c-0.276,1.561-0.862,3-1.756,4.316l-0.342,0.098
		c-0.472,0.131-0.846,0.229-1.122,0.294c-0.618,4.089-0.927,7.209-0.927,9.359c0,3.372,0.244,5.881,0.732,7.526
		c1.105-0.441,2.358-1.229,3.756-2.357l1.074,1.281c-3.331,2.771-5.711,5.381-7.141,7.826
		C154.777,161.434,153.72,158.262,153.428,153.893z M153.291,151.325c-0.055-0.847-0.082-1.514-0.082-2.003
		c0-3.062,0.349-6.032,1.047-8.915c-0.114,0-0.716,0.029-1.807,0.09c-0.749,0.045-1.848-0.117-3.297-0.484
		c-1.449-0.352-2.638-0.752-3.565-1.199c-0.909,0.928-1.595,1.994-2.058,3.199s-0.694,2.541-0.694,4.006
		c0,4.641,1.591,8.499,4.773,11.576C149.786,156.092,151.681,154.002,153.291,151.325z"/>
	<path d="M165.392,157.143l0.855-2.616c3.211-4.597,7.239-9.202,12.081-13.816c-2.021,0.568-3.644,0.853-4.866,0.853
		c-3.179,0-6.122-0.771-8.828-2.314c0.244-1.82,0.855-3.414,1.834-4.779c2.427,1.709,5.254,2.562,8.479,2.562
		c3.096,0,5.824-0.643,8.187-1.928c-0.098,1.414-0.577,3.112-1.437,5.095c-4.66,4.348-8.327,8.208-10.999,11.583
		c1.123-0.229,2.312-0.344,3.565-0.344c2.964,0,5.422,0.819,7.377,2.457c1.953,1.639,2.931,3.704,2.931,6.197
		c0,3.341-2.083,6.601-6.249,9.779l-1.1,0.831c-0.098,0.081-0.35,0.269-0.756,0.562c-0.635,0.44-1.295,1.02-1.979,1.736
		c-2.119-1.271-4.043-1.906-5.771-1.906c-0.408,0-1.06,0.09-1.957,0.27c0.407-1.469,1.19-2.881,2.348-4.234
		c0.521-0.065,0.889-0.098,1.101-0.098c2.283,0,4.329,0.822,6.138,2.469c2.461-2.23,3.692-4.738,3.692-7.521
		c0-1.97-0.688-3.537-2.066-4.701s-3.24-1.746-5.588-1.746C170.201,155.532,167.87,156.069,165.392,157.143z"/>
	<path d="M196.998,160.649c-2.621-8.439-5.521-15.008-8.696-19.707c-0.942,0.731-1.764,1.789-2.462,3.17l-1.293-0.561
		c1.35-3.479,3.349-6.309,5.998-8.488c1.743,2.325,3.365,5.154,4.864,8.488c1.905-3.561,4.397-6.391,7.477-8.488
		c2.575,0.423,4.657,1.549,6.246,3.379c1.589,1.828,2.384,4.012,2.384,6.549c0,4.276-2.452,8.309-7.355,12.098l-3.227,2.488
		c-3.112,2.391-4.668,4.382-4.668,5.976c0,1.024,0.33,1.792,0.989,2.306c0.659,0.512,1.649,0.768,2.968,0.768
		c0.684,0,1.43-0.135,2.235-0.402c0.806-0.269,1.665-0.662,2.577-1.184c-0.358,1.889-1.164,3.648-2.418,5.276
		c-0.619,0.228-1.227,0.399-1.822,0.514c-0.594,0.114-1.177,0.171-1.747,0.171c-2.021,0-3.667-0.492-4.938-1.477
		s-1.906-2.25-1.906-3.796C192.203,165.938,193.801,163.579,196.998,160.649z M200.955,157.308c3.811-3.024,5.717-6.351,5.717-9.976
		c0-3.903-1.612-6.506-4.837-7.807c-2.361,1.514-4.251,3.416-5.667,5.709C198.203,149.625,199.799,153.649,200.955,157.308z"/>
	<path d="M224.238,163.688c0.277-1.863,0.854-3.415,1.732-4.657c5.303-1.709,7.955-5.046,7.955-10.01
		c0-1.741-0.375-4.166-1.123-7.274l-1.122-4.566c1.806-2.869,3.694-5.181,5.663-6.932c-3.759-0.408-6.712-1.499-8.859-3.274
		c0.455-1.645,1.439-3.103,2.953-4.372c2.102,2.703,5.9,4.055,11.395,4.055v-5.13l2.77-1.808c-0.847,2.297-1.27,4.414-1.27,6.352
		v0.586h3.295c4.426,0,7.655,0.635,9.689,1.904c4.197,2.637,6.297,6.875,6.297,12.718c0,3.516-0.668,6.563-2.002,9.142
		c-1.334,2.58-3.628,5.253-6.882,8.02l-1.587,1.342c-1.465,1.254-2.611,2.556-3.441,3.906c-5.197-1.312-10.328-1.969-15.395-1.969
		C230.282,161.719,226.926,162.375,224.238,163.688z M242.832,157.442v-26.62c-0.751-0.06-1.444-0.104-2.08-0.134
		c-0.686-0.032-1.265-0.098-1.738-0.195c-1.393,1.643-2.088,3.317-2.088,5.024c0,0.976,0.213,2.342,0.639,4.098l0.541,2.194
		c0.443,1.806,0.664,3.098,0.664,3.879c0,4.683-2.737,8.91-8.211,12.683c2.982-0.685,5.981-1.026,8.997-1.026L242.832,157.442z
		 M244.332,157.54c3.049,0.328,5.496,0.764,7.338,1.305c4.545-3.793,6.818-8.889,6.818-15.287c0-4.314-0.973-7.444-2.917-9.391
		c-1.944-1.945-5.187-3.031-9.726-3.26l-1.514-0.062V157.54z M250.971,139.858c1.108,1.826,2.413,3.139,3.913,3.938
		c-1.5,0.8-2.805,2.104-3.913,3.914c-1.093-1.826-2.396-3.131-3.913-3.914C248.558,142.997,249.861,141.684,250.971,139.858z"/>
	<path d="M277.797,163.407c-3.193-0.814-5.812-2.484-7.855-5.009c-2.045-2.524-3.066-5.376-3.066-8.552
		c0-4.008,2.248-7.722,6.744-11.143l0.83-0.66c1.466-1.091,2.582-2.084,3.348-2.98c3.283,0.961,5.924,2.688,7.924,5.18
		c1.998,2.492,2.998,5.303,2.998,8.43c0,4.008-2.316,7.763-6.948,11.265l-1.048,0.806
		C279.535,161.639,278.561,162.528,277.797,163.407z M280.09,159.301c2.731-2.182,4.098-4.928,4.098-8.234
		c0-2.492-0.793-4.801-2.379-6.926c-1.585-2.127-3.727-3.743-6.426-4.852c-2.651,1.972-3.977,4.66-3.977,8.064
		c0,2.557,0.776,4.902,2.329,7.037C275.288,156.524,277.406,158.162,280.09,159.301z"/>
	<path d="M305.763,153.463c-2.257,4.281-4.53,7.381-6.82,9.302c-2.264-1.139-4.165-3.071-5.704-5.796
		c-1.539-2.727-2.308-5.504-2.308-8.336c0-2.245,0.655-4.34,1.966-6.285c1.31-1.943,3.715-4.373,7.215-7.285
		c2.568,0.792,4.99,1.188,7.266,1.188c2.309,0,4.725-0.396,7.247-1.188c-0.325,1.592-0.937,3.062-1.831,4.41
		c-0.18,0.049-0.317,0.09-0.415,0.122c-0.358,0.114-0.651,0.188-0.879,0.22c-0.879,2.588-1.318,5.232-1.318,7.936
		c0,5.094,1.281,10.254,3.844,15.479c-1.173,1.612-3.436,3.559-6.79,5.838l-0.951,0.66c-1.693,1.14-3.086,2.23-4.177,3.273
		c-1.171-0.456-2.276-0.795-3.317-1.014c-1.041-0.221-2.025-0.33-2.952-0.33c-0.976,0-2.028,0.109-3.159,0.33
		c-1.131,0.219-2.348,0.558-3.648,1.014c0.472-1.482,1.342-3.08,2.611-4.79c0.976-0.31,1.918-0.542,2.828-0.696
		c0.91-0.155,1.789-0.232,2.635-0.232c1.365,0,2.689,0.146,3.975,0.438c1.283,0.291,2.52,0.729,3.706,1.312
		c2.41-1.546,3.615-3.123,3.615-4.734c0-0.977-0.279-2.367-0.838-4.172l-0.641-2.1C306.494,156.676,306.107,155.155,305.763,153.463
		z M305.565,150.997c-0.132-1.186-0.197-2.666-0.197-4.438c0-2.341,0.337-4.381,1.011-6.121l-0.927,0.024
		c-2.795,0-5.265-0.558-7.41-1.673c-0.86,0.977-1.505,2.035-1.935,3.174c-0.431,1.14-0.646,2.36-0.646,3.662
		c0,4.477,1.558,8.229,4.673,11.256c1.705-1.352,3.328-3.061,4.871-5.127C305.135,151.591,305.322,151.338,305.565,150.997z"/>
	<path d="M317.691,159.458c1.291-0.769,2.705-2.174,4.242-4.217c1.553,2.059,2.957,3.465,4.217,4.217
		c-1.26,0.768-2.664,2.182-4.217,4.24C320.396,161.655,318.982,160.242,317.691,159.458z"/>
</g>
<g>
	<path d="M465.224,75.755c-9.029,17.125-18.123,29.527-27.281,37.209c-9.055-4.555-16.658-12.283-22.814-23.186
		s-9.232-22.016-9.232-33.342c0-8.98,2.619-17.361,7.861-25.139c5.24-7.777,14.859-17.492,28.859-29.143
		c10.273,3.168,19.961,4.75,29.064,4.75c9.234,0,18.896-1.582,28.988-4.75c-1.303,6.367-3.744,12.248-7.324,17.641
		c-0.717,0.195-1.27,0.359-1.66,0.488c-1.434,0.457-2.605,0.75-3.516,0.879c-3.516,10.352-5.273,20.932-5.273,31.74
		c0,20.379,5.125,41.018,15.375,61.916c-4.689,6.449-13.742,14.232-27.158,23.354l-3.809,2.639
		c-6.773,4.559-12.342,8.924-16.705,13.094c-4.684-1.824-9.107-3.178-13.271-4.055c-4.164-0.881-8.1-1.32-11.807-1.32
		c-3.902,0-8.115,0.439-12.637,1.32c-4.523,0.877-9.389,2.23-14.596,4.055c1.889-5.932,5.371-12.318,10.449-19.16
		c3.9-1.238,7.672-2.168,11.312-2.785c3.641-0.621,7.152-0.93,10.535-0.93c5.461,0,10.762,0.582,15.898,1.75
		c5.137,1.166,10.078,2.916,14.826,5.25c9.641-6.184,14.461-12.494,14.461-18.936c0-3.906-1.117-9.469-3.352-16.691l-2.562-8.395
		C468.147,88.609,466.603,82.525,465.224,75.755z M464.435,65.892c-0.527-4.746-0.789-10.664-0.789-17.752
		c0-9.363,1.346-17.525,4.041-24.484l-3.705,0.098c-11.18,0-21.061-2.23-29.641-6.691c-3.441,3.906-6.021,8.139-7.74,12.695
		c-1.721,4.559-2.58,9.441-2.58,14.648c0,17.906,6.23,32.912,18.693,45.021c6.816-5.402,13.311-12.238,19.48-20.508
		C462.714,68.269,463.46,67.259,464.435,65.892z"/>
</g>
<g>
	<path d="M14,193.175c-0.846,1.691-1.772,2.956-2.781,3.794c-0.933-0.469-1.71-1.249-2.332-2.339
		c-0.623-1.09-0.934-2.218-0.934-3.384c0-0.873,0.313-1.776,0.938-2.71s1.561-1.899,2.806-2.896c0.526,0.158,1.03,0.279,1.512,0.361
		c0.481,0.083,0.939,0.124,1.376,0.124c0.852,0,1.843-0.162,2.975-0.484c-0.11,0.635-0.344,1.22-0.701,1.755l-0.136,0.04
		c-0.188,0.053-0.337,0.093-0.448,0.119c-0.246,1.625-0.37,2.865-0.37,3.72c0,1.341,0.097,2.338,0.292,2.992
		c0.441-0.175,0.94-0.486,1.497-0.934l0.43,0.516c-1.33,1.105-2.281,2.146-2.852,3.121C14.542,196.182,14.118,194.917,14,193.175z
		 M13.952,192.151c-0.02-0.337-0.029-0.602-0.029-0.796c0-1.217,0.137-2.397,0.411-3.542c-0.046,0-0.287,0.009-0.723,0.027
		c-0.299,0.014-0.738-0.056-1.317-0.207c-0.579-0.144-1.054-0.308-1.424-0.492c-0.364,0.371-0.639,0.796-0.825,1.278
		c-0.186,0.481-0.278,1.014-0.278,1.6c0,1.853,0.637,3.394,1.913,4.623C12.55,194.044,13.308,193.214,13.952,192.151z"/>
	<path d="M18.014,196.969c0.273-0.456,0.43-0.99,0.469-1.602c0.064-0.033,0.113-0.055,0.145-0.068
		c0.181-0.084,0.335-0.15,0.464-0.195v-11.997c1.152-1.726,2.463-2.892,3.934-3.498c1.935,0,3.18,0.433,3.734,1.299
		c-0.313,0.599-0.793,1.081-1.438,1.446c-0.404-1.029-1.403-1.635-2.999-1.817c-0.508,0.508-0.853,1.063-1.035,1.666
		s-0.273,1.506-0.273,2.711v4.455c1.055-1.815,2.031-3.058,2.93-3.728c0.899,0.293,1.662,0.877,2.288,1.753
		c0.626,0.875,0.939,1.798,0.939,2.769c0,1.92-0.802,3.656-2.405,5.205l-0.391,0.371c-0.352,0.338-0.688,0.749-1.007,1.23
		c-1.164-0.365-2.123-0.547-2.876-0.547C19.691,196.422,18.866,196.604,18.014,196.969z M21.014,194.781l0.312-0.01
		c0.67,0,1.507,0.199,2.51,0.596c0.931-1.283,1.396-2.682,1.396-4.199c0-1.549-0.619-2.637-1.855-3.262
		c-0.788,0.585-1.576,1.425-2.363,2.518V194.781z"/>
	<path d="M35.866,192.56c-0.775,1.671-1.97,3.141-3.585,4.409c-1.422-0.702-2.398-1.496-2.93-2.379
		c-0.532-0.885-0.797-2.162-0.797-3.833c0-0.312,0.026-0.807,0.079-1.482c0.991-1.397,2.083-2.608,3.277-3.633
		c0.573,0.406,1.186,0.609,1.837,0.609c0.293,0,0.594-0.041,0.903-0.123s0.63-0.205,0.962-0.369
		c-0.124,0.635-0.391,1.283-0.801,1.944c-0.234,0.079-0.479,0.137-0.732,0.176c-0.254,0.04-0.518,0.059-0.792,0.059
		c-0.729,0-1.495-0.208-2.295-0.625c-0.417,0.658-0.625,1.612-0.625,2.862c0,2.391,0.824,3.947,2.472,4.669
		c1.009-0.625,1.859-1.515,2.549-2.673L35.866,192.56z"/>
	<path d="M40.885,196.969c-1.21-0.287-2.216-0.946-3.02-1.978c-0.803-1.032-1.205-2.183-1.205-3.452
		c0-0.977,0.202-1.761,0.605-2.354c0.403-0.593,1.327-1.462,2.771-2.608l-0.4-0.156c-1.1-0.423-1.89-0.879-2.368-1.367
		s-0.77-1.133-0.874-1.934c0.638-1.174,1.445-2.052,2.422-2.635s2.125-0.875,3.447-0.875c1.347,0,2.402,0.249,3.164,0.745
		c-0.312,0.697-0.785,1.238-1.416,1.623C43.158,181.326,42.03,181,40.627,181c-0.449,0-0.897,0.063-1.346,0.19
		c-0.449,0.127-0.897,0.317-1.346,0.571c-0.006,0.13-0.009,0.228-0.009,0.293c0,0.958,0.901,1.843,2.703,2.657l0.888,0.4
		c2.543,1.152,3.815,2.885,3.815,5.196c0,1.087-0.196,1.998-0.586,2.73c-0.391,0.732-1.102,1.519-2.131,2.358l-0.352,0.293
		C41.742,196.113,41.283,196.539,40.885,196.969z M41.793,195.289c1.151-1.126,1.727-2.513,1.727-4.16
		c0-1.804-0.791-3.132-2.372-3.985l-0.478-0.264c-1.497,1.101-2.245,2.396-2.245,3.888c0,0.866,0.302,1.704,0.908,2.515
		C39.938,194.092,40.758,194.761,41.793,195.289z"/>
	<path d="M54.01,192.574c-0.831,1.732-2.025,3.197-3.583,4.395c-1.49-0.82-2.485-1.636-2.983-2.446s-0.747-2.013-0.747-3.608
		c0-0.605,0.036-1.168,0.108-1.689c0.996-1.393,2.151-2.588,3.467-3.584c0.889,1.224,2.034,1.875,3.436,1.953l-0.399,1.143
		c-1.006,1.166-2.524,2.363-4.556,3.594c0.389,1.172,1.125,2.008,2.209,2.51c1.058-0.651,1.915-1.537,2.57-2.656L54.01,192.574z
		 M48.559,191.441c1.545-0.938,2.671-1.784,3.378-2.539c-0.974-0.202-1.898-0.697-2.774-1.484c-0.435,0.788-0.652,1.725-0.652,2.812
		C48.51,190.504,48.526,190.908,48.559,191.441z"/>
	<path d="M56.803,200.559v-13.481h-0.34c-0.643,0-1.295,0.124-1.957,0.371c0.175-0.554,0.393-1.049,0.654-1.485
		c0.428-0.059,0.891-0.088,1.39-0.088h0.253v-0.38c0-0.293-0.048-0.635-0.144-1.025l-0.067-0.293
		c-0.058-0.228-0.086-0.436-0.086-0.625c0-0.481,0.347-1.132,1.041-1.952c0.693-0.819,1.457-1.483,2.291-1.991
		c0.908,0.406,1.652,0.609,2.233,0.609c0.098,0,0.248-0.01,0.451-0.03c-0.339,0.761-0.816,1.362-1.43,1.805
		c-0.904-0.111-1.604-0.463-2.098-1.056c-0.45,0.56-0.675,1.177-0.675,1.854c0,0.436,0.057,0.849,0.172,1.239l0.077,0.303
		c0.115,0.396,0.172,0.8,0.172,1.21v0.332h0.519c0.719,0,1.564,0.03,2.537,0.088c-0.28,0.345-0.516,0.772-0.705,1.28
		c-0.79-0.11-1.437-0.166-1.939-0.166h-0.412v5.248c0,3.726-0.469,6.555-1.406,8.486L56.803,200.559z"/>
	<path d="M67.774,193.006c-0.904,1.712-1.814,2.951-2.731,3.719c-0.906-0.455-1.667-1.229-2.283-2.319
		c-0.616-1.09-0.924-2.202-0.924-3.335c0-0.898,0.262-1.737,0.787-2.515c0.524-0.778,1.487-1.75,2.889-2.916
		c1.027,0.323,1.996,0.484,2.906,0.484c0.923,0,1.89-0.162,2.899-0.484c-0.13,0.64-0.375,1.231-0.732,1.773
		c-0.072,0.02-0.127,0.036-0.166,0.049c-0.143,0.045-0.26,0.075-0.352,0.088c-0.352,1.034-0.527,2.092-0.527,3.172
		c0,2.037,0.51,4.1,1.531,6.188c-0.468,0.644-1.372,1.421-2.711,2.332l-0.38,0.263c-0.676,0.455-1.232,0.891-1.668,1.307
		c-0.469-0.18-0.912-0.314-1.329-0.401s-0.811-0.13-1.182-0.13c-0.391,0-0.812,0.043-1.265,0.13s-0.939,0.221-1.46,0.401
		c0.189-0.591,0.537-1.228,1.045-1.91c0.391-0.124,0.768-0.217,1.132-0.278c0.365-0.062,0.716-0.093,1.055-0.093
		c0.547,0,1.077,0.059,1.592,0.176c0.514,0.117,1.009,0.293,1.484,0.527c0.958-0.618,1.437-1.25,1.437-1.894
		c0-0.391-0.111-0.946-0.333-1.669l-0.254-0.839C68.064,194.292,67.911,193.683,67.774,193.006z M67.696,192.021
		c-0.053-0.475-0.079-1.066-0.079-1.775c0-0.937,0.133-1.753,0.401-2.449l-0.37,0.01c-1.119,0-2.107-0.222-2.966-0.667
		c-0.345,0.391-0.603,0.813-0.775,1.269s-0.258,0.944-0.258,1.464c0,1.789,0.624,3.289,1.873,4.5c0.683-0.54,1.333-1.223,1.95-2.05
		C67.523,192.258,67.599,192.158,67.696,192.021z"/>
	<path d="M74.926,190.375v3.819c0.145,0.215,0.397,0.488,0.758,0.82c-0.705,0.593-1.3,1.245-1.783,1.955
		c-0.256-0.651-0.66-1.169-1.21-1.554c0.208-0.657,0.312-1.345,0.312-2.061v-10.247c1.157-1.726,2.47-2.891,3.941-3.497
		c1.95,0,3.201,0.433,3.755,1.299c-0.312,0.605-0.791,1.088-1.436,1.445c-0.413-1.028-1.419-1.634-3.019-1.816
		c-0.512,0.501-0.86,1.055-1.044,1.66c-0.184,0.606-0.276,1.511-0.276,2.716v4.455c0.965-1.667,1.947-2.911,2.945-3.732
		c1.036,0.704,1.763,1.477,2.18,2.32s0.625,1.958,0.625,3.346c0,3.465-0.774,6.235-2.322,8.313l-1.418,0.244
		c1.254-1.55,1.881-4.135,1.881-7.756c0-1.999-0.516-3.393-1.546-4.181C76.594,188.326,75.812,189.144,74.926,190.375z"/>
	<path d="M86.503,186.109c-0.512,0.952-0.769,2.03-0.769,3.235v2.893c0,0.828,0.092,1.515,0.276,2.062
		c0.506-0.228,1.008-0.551,1.508-0.968l0.404,0.528c-1.428,1.212-2.437,2.248-3.027,3.108c-0.722-0.899-1.083-2.111-1.083-3.636
		v-2.033c0-1.407,0.214-2.564,0.644-3.47c-0.3-0.071-0.55-0.169-0.751-0.293c-0.638,0.515-1.146,1.095-1.523,1.74l-0.479-0.372
		c0.696-1.436,1.562-2.523,2.597-3.264C84.869,185.909,85.603,186.065,86.503,186.109z M83.454,183.828
		c0.117-0.51,0.298-1.026,0.544-1.549c0.96-1.068,1.981-1.922,3.065-2.56c-0.439,0.769-0.728,1.55-0.865,2.345
		C85.195,182.567,84.28,183.155,83.454,183.828z"/>
	<path d="M92.412,186.109c-0.502,1.042-0.753,2.084-0.753,3.126v2.091c0,0.332,0.027,1.035,0.082,2.11
		c0.018,0.411,0.027,0.778,0.027,1.104c0,2.546-1.111,4.637-3.333,6.272l-0.394-0.234c1.203-1.543,1.805-3.295,1.805-5.256
		c0-0.24-0.044-0.889-0.134-1.944c-0.025-0.371-0.038-0.723-0.038-1.055v-1.025c0-1.407,0.214-2.563,0.642-3.469
		c-0.299-0.071-0.549-0.169-0.75-0.293c-0.643,0.515-1.154,1.094-1.535,1.739l-0.482-0.371c0.7-1.436,1.57-2.523,2.61-3.263
		C90.738,185.915,91.489,186.071,92.412,186.109z M89.389,183.828c0.117-0.51,0.296-1.026,0.536-1.549
		c0.955-1.068,1.976-1.922,3.062-2.56c-0.436,0.769-0.725,1.55-0.868,2.345C91.125,182.567,90.214,183.155,89.389,183.828z"/>
	<path d="M96.68,191.719v2.479c0.144,0.215,0.395,0.488,0.754,0.82c-0.704,0.592-1.296,1.243-1.778,1.952
		c-0.259-0.65-0.668-1.167-1.226-1.551c0.219-0.658,0.328-1.345,0.328-2.062v-10.248c1.153-1.727,2.463-2.893,3.929-3.499
		c1.943,0,3.192,0.433,3.747,1.3c-0.313,0.606-0.792,1.088-1.438,1.447c-0.411-1.029-1.413-1.636-3.005-1.818
		c-0.509,0.502-0.855,1.056-1.038,1.662c-0.183,0.605-0.274,1.512-0.274,2.717v4.339c0.907-1.785,2.131-2.991,3.671-3.616
		c0.195,1.14,0.724,2.154,1.584,3.04l-0.234,0.596l-2.446,1.466c0.907,0.26,1.561,0.634,1.962,1.122
		c0.4,0.488,0.78,1.374,1.14,2.655c0.456-0.182,0.811-0.345,1.065-0.487l0.352,0.565c-1.493,0.801-2.633,1.591-3.422,2.372
		c0.052-0.468,0.078-0.859,0.078-1.171C100.43,193.228,99.18,191.869,96.68,191.719z M96.68,191.5l3.564-2.068
		c-0.45-0.456-0.777-0.994-0.979-1.613c-1.012,0.502-1.874,1.369-2.585,2.6V191.5z"/>
	<path d="M107.227,194.194c0.306,0.372,0.658,0.713,1.055,1.026c-0.664,0.521-1.204,1.104-1.621,1.749
		c-0.448-0.638-1.009-1.153-1.684-1.543c0.219-0.716,0.328-1.406,0.328-2.071v-10.247c1.015-1.811,2.203-2.977,3.562-3.498
		c1.693,0,2.865,0.453,3.516,1.358c-0.319,0.541-0.785,1-1.396,1.377c-0.176-0.462-0.531-0.868-1.064-1.216
		s-1.126-0.565-1.777-0.649c-0.612,0.833-0.918,2.312-0.918,4.435V194.194z"/>
	<path d="M113.293,190.582v3.613c0.15,0.221,0.401,0.495,0.753,0.82c-0.703,0.592-1.296,1.244-1.778,1.953
		c-0.26-0.645-0.67-1.162-1.229-1.553c0.221-0.658,0.332-1.344,0.332-2.061v-4.102c0-0.488-0.088-0.951-0.263-1.387
		c-0.52,0.371-0.975,0.833-1.365,1.387l-0.497-0.391c0.65-1.263,1.658-2.337,3.022-3.223c0.683,0.957,1.024,2.162,1.024,3.613
		c0.861-1.803,1.908-3.008,3.141-3.613c0.741,0.306,1.247,0.714,1.517,1.226c0.27,0.511,0.405,1.307,0.405,2.388
		c0.796-1.556,1.887-2.76,3.271-3.613c0.585,0.742,1.378,1.237,2.379,1.484c-0.506,1.055-0.76,2.393-0.76,4.014v0.518
		c0,1.289,0.143,2.194,0.429,2.715c0.467-0.228,0.948-0.576,1.442-1.045l0.458,0.459c-1.345,1.23-2.335,2.292-2.972,3.184
		c-0.852-1.146-1.278-2.676-1.278-4.59v-0.645c0-1.361,0.101-2.399,0.302-3.115c-0.47-0.254-0.842-0.498-1.115-0.732
		c-1.02,0.755-1.738,1.67-2.156,2.744v2.695c0,0.566,0.079,1.256,0.235,2.07c-0.716,0.338-1.526,0.863-2.431,1.572
		c0.183-1.152,0.274-2.367,0.274-3.643v-3.818c0-0.645-0.163-1.185-0.489-1.621C114.888,188.251,114.004,189.15,113.293,190.582z"/>
	<path d="M129.016,190.581v3.614c0.15,0.222,0.401,0.495,0.753,0.82c-0.703,0.593-1.296,1.244-1.778,1.954
		c-0.26-0.645-0.67-1.163-1.229-1.553c0.221-0.657,0.332-1.345,0.332-2.061v-4.103c0-0.488-0.088-0.95-0.263-1.387
		c-0.52,0.371-0.975,0.833-1.365,1.387l-0.497-0.391c0.65-1.263,1.658-2.336,3.022-3.221c0.618,0.859,0.959,2.063,1.024,3.612
		c0.731-1.51,1.615-2.714,2.653-3.612c1.229,0.969,2.258,1.453,3.084,1.453c0.071,0,0.169-0.003,0.292-0.01
		c-0.52,1.257-0.779,2.605-0.779,4.043v0.518c0,1.224,0.153,2.129,0.458,2.715c0.446-0.223,0.919-0.573,1.417-1.051l0.453,0.484
		c-1.163,0.983-2.15,2.041-2.962,3.174c-0.858-1.068-1.288-2.585-1.288-4.552v-0.654c0-1.231,0.091-2.237,0.273-3.018
		c-0.482-0.104-1.001-0.361-1.555-0.771C130.142,188.657,129.46,189.526,129.016,190.581z"/>
	<path d="M141.106,196.969c-1.277-0.326-2.324-0.993-3.141-2.002s-1.226-2.148-1.226-3.418c0-1.602,0.899-3.086,2.697-4.453
		l0.332-0.264c0.586-0.436,1.032-0.833,1.338-1.191c1.313,0.384,2.369,1.074,3.168,2.07c0.799,0.996,1.199,2.119,1.199,3.369
		c0,1.602-0.926,3.102-2.778,4.502l-0.419,0.322C141.801,196.262,141.411,196.617,141.106,196.969z M142.022,195.328
		c1.092-0.873,1.638-1.969,1.638-3.291c0-0.996-0.317-1.919-0.951-2.769s-1.49-1.496-2.569-1.938
		c-1.06,0.788-1.589,1.862-1.589,3.223c0,1.022,0.31,1.959,0.931,2.812C140.103,194.218,140.95,194.873,142.022,195.328z"/>
	<path d="M148.342,200.578v-4.524c-1.019,0.156-1.816,0.469-2.391,0.938l0.412-1.271c0.646-0.547,1.306-0.912,1.979-1.094v-4.703
		c0-0.95-0.157-1.649-0.47-2.098c-0.529,0.312-1.006,0.784-1.431,1.415l-0.49-0.41c0.744-1.209,1.69-2.273,2.839-3.19
		c0.982,1.021,1.473,2.264,1.473,3.727c0.788-1.463,1.748-2.706,2.881-3.727c1.008,0.423,1.804,1.042,2.386,1.854
		c0.582,0.813,0.874,1.708,0.874,2.684c0,1.724-0.706,3.315-2.118,4.772l-0.469,0.479c-0.377,0.377-0.742,0.807-1.093,1.288
		c-0.833-0.352-1.654-0.573-2.461-0.665v0.117c0,1.153-0.469,2.7-1.406,4.642L148.342,200.578z M150.264,194.422
		c0.99,0.052,1.973,0.271,2.949,0.655c0.846-1.158,1.27-2.437,1.27-3.835c0-1.601-0.625-2.716-1.875-3.347
		c-0.729,0.527-1.51,1.356-2.344,2.488V194.422z"/>
	<path d="M163.479,193.368c-0.757,1.507-1.664,2.709-2.721,3.605c-0.934-0.482-1.712-1.267-2.332-2.354
		c-0.621-1.088-0.931-2.211-0.931-3.371c0-0.977,0.259-1.853,0.779-2.627c0.52-0.775,1.511-1.769,2.975-2.98
		c1.001,0.406,1.876,0.609,2.623,0.609c0.93,0,1.818-0.203,2.665-0.609c-0.091,0.599-0.25,1.093-0.479,1.484
		c-0.625,0.612-0.938,1.178-0.938,1.699c0,0.182,0.01,0.367,0.03,0.556l0.051,0.371c0.134,0.95,0.201,1.826,0.201,2.626v0.419
		c0,3.17-0.469,5.841-1.406,8.016l-0.516-0.234V193.368z M163.479,192.237c-0.115-0.956-0.172-1.646-0.172-2.068
		c0-0.812,0.523-1.688,1.57-2.624c-0.755,0.231-1.341,0.346-1.758,0.346c-0.826,0-1.748-0.24-2.763-0.719
		c-0.7,0.783-1.049,1.731-1.049,2.846c0,1.786,0.634,3.332,1.902,4.636C161.998,194.147,162.755,193.341,163.479,192.237z"/>
	<path d="M170.852,191.035v3.162c0.3,0.371,0.652,0.713,1.057,1.025c-0.672,0.527-1.213,1.109-1.625,1.747
		c-0.457-0.638-1.024-1.152-1.703-1.542c0.222-0.716,0.333-1.406,0.333-2.069v-3.621c0-0.885-0.154-1.526-0.46-1.923
		c-0.549,0.371-1.025,0.853-1.431,1.444l-0.5-0.41c0.672-1.18,1.623-2.249,2.851-3.208c0.874,0.913,1.367,2.119,1.478,3.618
		c0.522-1.604,1.428-2.81,2.72-3.618c0.522,0.648,1.063,0.992,1.624,1.031c-0.202,0.976-0.509,1.702-0.919,2.176
		c-0.567-0.175-1.05-0.458-1.448-0.849C171.922,188.683,171.263,189.694,170.852,191.035z"/>
	<path d="M178.826,196.969c-0.72-1.427-1.683-2.141-2.889-2.141c-0.247,0-0.506,0.052-0.778,0.157
		c0.232-0.824,0.571-1.444,1.016-1.86c1.635,0,2.931,0.806,3.889,2.417c0.896-0.675,1.345-1.559,1.345-2.65
		c0-0.539-0.121-0.986-0.363-1.34s-0.609-0.615-1.1-0.784l-1.119,1.073c-0.188,0.013-0.325,0.02-0.409,0.02
		c-0.792,0-1.418-0.303-1.879-0.909s-0.691-1.427-0.691-2.463c0.831-1.305,1.824-2.253,2.98-2.847
		c0.32,0.174,0.643,0.306,0.966,0.396c0.324,0.09,0.646,0.135,0.966,0.135c0.34,0,0.674-0.045,1.001-0.135
		c0.327-0.09,0.647-0.222,0.962-0.396c-0.17,0.697-0.467,1.277-0.892,1.74c-0.295,0.144-0.596,0.252-0.903,0.324
		s-0.622,0.108-0.942,0.108c-0.399,0-0.787-0.064-1.163-0.191c-0.377-0.127-0.745-0.319-1.104-0.574
		c-0.164,0.281-0.246,0.644-0.246,1.087c0,1.307,0.612,1.959,1.836,1.959l1.031-1.018c0.961,0.059,1.682,0.338,2.162,0.838
		s0.721,1.225,0.721,2.174c0,0.852-0.189,1.697-0.568,2.535c-0.504,0.378-1.08,0.72-1.727,1.026l-0.51,0.244
		C179.813,196.181,179.284,196.539,178.826,196.969z"/>
	<path d="M188.046,196.969c-0.875-0.567-1.488-1.245-1.84-2.033s-0.528-1.883-0.528-3.284v-4.574h-0.185
		c-0.792,0-1.507,0.114-2.143,0.342c0.13-0.535,0.318-0.998,0.565-1.389c0.565-0.104,1.059-0.157,1.48-0.157h0.283v-0.127
		c0-0.729,0.276-1.482,0.827-2.26c0.552-0.778,1.293-1.456,2.227-2.035l0.353,0.556c-0.979,0.82-1.468,2.001-1.468,3.544v0.322
		h0.724c0.776,0,1.608,0.052,2.496,0.157c-0.326,0.365-0.558,0.785-0.695,1.262c-0.9-0.144-1.599-0.215-2.094-0.215h-0.431v3.753
		c0,1.662,0.372,2.893,1.116,3.694c0.848-0.43,1.549-1.02,2.104-1.769l0.499,0.312C190.604,194.366,189.508,195.666,188.046,196.969
		z"/>
	<path d="M198.612,193.229c-0.904,1.641-1.893,2.887-2.966,3.74c-0.835-0.541-1.492-1.336-1.971-2.388
		c-0.479-1.051-0.719-2.222-0.719-3.511c0-1.256,0.133-2.393,0.401-3.408c-0.664,0.084-1.27,0.465-1.816,1.143l-0.342-0.439
		c0.775-1.23,1.811-2.139,3.107-2.725c0.365,0.521,0.841,0.938,1.428,1.25c-0.561,0.846-0.84,2.07-0.84,3.672
		c0,1.869,0.501,3.207,1.504,4.014c0.761-0.547,1.499-1.332,2.214-2.354l-0.016-0.771c0-1.074,0.083-2.015,0.25-2.822
		c-0.409-0.475-0.747-0.82-1.013-1.035c0.592-0.475,1.2-1.126,1.825-1.953c0.339,0.762,0.818,1.318,1.437,1.67
		c-0.365,1.244-0.547,2.695-0.547,4.355c0,1.139,0.104,2.018,0.312,2.637c0.456-0.195,0.954-0.508,1.494-0.938l0.43,0.488
		c-1.022,0.84-1.944,1.764-2.765,2.773c-0.059,0.078-0.149,0.192-0.273,0.342C199.088,196.305,198.709,195.058,198.612,193.229z"/>
	<path d="M207.312,196.969c-0.507-1.784-1.125-3.534-1.852-5.249c-0.728-1.715-1.377-2.951-1.949-3.706
		c-0.403,0.287-0.718,0.703-0.945,1.25l-0.507-0.225c0.416-1.309,1.199-2.441,2.349-3.398c0.61,0.801,1.26,1.934,1.949,3.398
		c0.728-1.393,1.725-2.526,2.992-3.398c1.014,0.163,1.849,0.61,2.506,1.343c0.656,0.732,0.985,1.581,0.985,2.544
		c0,1.172-0.294,2.222-0.882,3.149c-0.588,0.928-1.581,1.909-2.979,2.944l-0.517,0.371
		C208.021,196.318,207.637,196.643,207.312,196.969z M208.745,195.035c0.63-0.43,1.15-1.046,1.56-1.851
		c0.409-0.804,0.614-1.613,0.614-2.427c0-1.608-0.666-2.715-1.998-3.32c-0.936,0.521-1.689,1.289-2.261,2.305
		C207.426,191.213,208.121,192.978,208.745,195.035z"/>
	<path d="M218.219,196.969c-0.905-3.307-2.156-6.299-3.752-8.975c-0.391,0.345-0.736,0.788-1.036,1.328l-0.508-0.234
		c0.612-1.582,1.394-2.731,2.345-3.447c0.619,0.709,1.3,1.859,2.043,3.447c0.573-1.51,1.381-2.66,2.423-3.447
		c1.399,0.215,2.463,1.061,3.193,2.539c0.585-1.029,1.307-1.875,2.165-2.539c0.851,0.052,1.624,0.487,2.319,1.304
		c0.695,0.817,1.042,1.701,1.042,2.651c0,2.22-1.196,4.18-3.587,5.879l-0.624,0.439c-0.604,0.43-1.043,0.781-1.315,1.055
		c-0.358-1.38-0.732-2.529-1.122-3.447c-0.443,0.605-1.133,1.283-2.071,2.031l-0.4,0.312
		C218.961,196.165,218.59,196.533,218.219,196.969z M219.587,194.908c1.141-1.283,1.71-2.689,1.71-4.219
		c0-1.504-0.623-2.578-1.867-3.223c-0.769,0.651-1.381,1.406-1.837,2.266C218.597,191.914,219.262,193.639,219.587,194.908z
		 M224.272,195.143c1.548-1.12,2.322-2.575,2.322-4.365c0-1.595-0.641-2.711-1.921-3.35c-0.592,0.443-1.103,0.967-1.532,1.572
		c0.013,0.078,0.023,0.14,0.029,0.186c0.033,0.176,0.049,0.332,0.049,0.469c0,0.527-0.098,1.123-0.292,1.787
		C223.485,192.587,223.935,193.821,224.272,195.143z"/>
	<path d="M233.471,192.983c-0.887,2.246-2.324,3.694-4.312,4.345l-0.219-0.547c0.879-0.507,1.655-1.297,2.329-2.368
		s1.128-2.231,1.362-3.481l-0.4-1.083c-0.404-1.067-0.833-1.79-1.289-2.168c-0.45,0.273-0.867,0.703-1.252,1.289l-0.531-0.439
		c0.653-1.168,1.462-2.131,2.428-2.891c0.977,0.553,1.715,1.52,2.217,2.9l0.479,1.309c0.612-1.985,1.488-3.388,2.627-4.208
		c0.248,0.605,0.701,1.002,1.359,1.191c-0.15,0.573-0.436,1.143-0.859,1.709c-0.313-0.104-0.652-0.329-1.018-0.674
		c-0.827,0.729-1.4,1.696-1.719,2.9l0.654,1.689c0.495,1.276,0.99,2.139,1.484,2.588c0.582-0.417,1.036-0.791,1.363-1.123
		l0.453,0.498c-0.098,0.085-0.43,0.371-0.996,0.86c-0.703,0.599-1.201,1.163-1.494,1.69c-1.002-0.599-1.774-1.615-2.314-3.048
		L233.471,192.983z"/>
	<path d="M243.781,195.873c-1.049-3.375-2.208-6.002-3.478-7.881c-0.377,0.292-0.706,0.715-0.985,1.268l-0.517-0.224
		c0.54-1.392,1.339-2.523,2.399-3.395c0.697,0.93,1.346,2.062,1.946,3.395c0.761-1.424,1.756-2.556,2.986-3.395
		c1.029,0.169,1.861,0.62,2.497,1.351c0.635,0.731,0.953,1.604,0.953,2.619c0,1.71-0.98,3.323-2.939,4.838l-1.289,0.995
		c-1.244,0.956-1.865,1.752-1.865,2.39c0,0.41,0.131,0.717,0.395,0.922c0.264,0.205,0.659,0.307,1.186,0.307
		c0.273,0,0.571-0.054,0.893-0.161c0.322-0.107,0.665-0.266,1.029-0.474c-0.143,0.756-0.465,1.459-0.966,2.11
		c-0.248,0.091-0.49,0.16-0.728,0.206c-0.238,0.045-0.47,0.068-0.698,0.068c-0.808,0-1.465-0.197-1.973-0.59
		c-0.508-0.394-0.762-0.9-0.762-1.519C241.864,197.988,242.503,197.044,243.781,195.873z M245.362,194.537
		c1.521-1.209,2.283-2.539,2.283-3.989c0-1.561-0.644-2.602-1.932-3.122c-0.943,0.605-1.697,1.366-2.263,2.283
		C244.263,191.464,244.9,193.074,245.362,194.537z"/>
	<path d="M251.155,194.47l0.342-1.044c1.283-1.841,2.893-3.685,4.827-5.532c-0.808,0.228-1.456,0.341-1.944,0.341
		c-1.271,0-2.446-0.309-3.528-0.926c0.098-0.73,0.342-1.37,0.733-1.918c0.97,0.688,2.099,1.031,3.388,1.031
		c1.236,0,2.326-0.258,3.271-0.776c-0.039,0.567-0.23,1.248-0.574,2.043c-1.861,1.74-3.326,3.285-4.394,4.636
		c0.449-0.091,0.924-0.137,1.425-0.137c1.185,0,2.167,0.328,2.949,0.983s1.172,1.481,1.172,2.479c0,1.337-0.834,2.641-2.499,3.912
		l-0.439,0.332c-0.039,0.033-0.14,0.107-0.302,0.225c-0.254,0.176-0.518,0.408-0.791,0.694c-0.847-0.51-1.616-0.766-2.306-0.766
		c-0.163,0-0.423,0.036-0.782,0.108c0.163-0.593,0.476-1.163,0.938-1.709c0.208-0.026,0.354-0.04,0.439-0.04
		c0.912,0,1.729,0.338,2.452,1.016c0.984-0.893,1.477-1.897,1.477-3.012c0-0.789-0.275-1.416-0.826-1.882s-1.295-0.699-2.233-0.699
		C253.077,193.828,252.146,194.042,251.155,194.47z"/>
	<path d="M264.259,196.969c-1.236-0.495-2.271-1.268-3.104-2.319s-1.249-2.111-1.249-3.179c0-1.074,0.462-2.148,1.386-3.223
		c0.925-1.074,2.136-1.943,3.633-2.607c1.207,0.482,2.229,1.258,3.067,2.329c0.838,1.071,1.257,2.144,1.257,3.218
		c0,1.061-0.466,2.134-1.398,3.218S265.72,196.344,264.259,196.969z M265.54,195.494c1.389-0.684,2.083-1.748,2.083-3.193
		c0-0.951-0.405-1.95-1.217-2.998c-0.812-1.048-1.74-1.768-2.783-2.158c-0.613,0.241-1.115,0.666-1.507,1.274
		c-0.391,0.609-0.586,1.265-0.586,1.968c0,0.944,0.376,1.895,1.129,2.852C263.413,194.195,264.373,194.947,265.54,195.494z"/>
	<path d="M273.475,195.531v-6.851l-1.047,0.528c-0.508,0.254-1.117,0.628-1.828,1.124c0.073-0.501,0.193-0.961,0.359-1.378
		l5.842-3.313c-0.065,0.528-0.192,0.951-0.382,1.271c-0.482,0.443-0.771,0.793-0.865,1.051s-0.142,0.8-0.142,1.627v5.942h0.626
		c0.984,0,1.786-0.045,2.405-0.137c-0.222,0.318-0.44,0.801-0.655,1.449c-0.69-0.073-1.428-0.109-2.21-0.109h-2.611
		c-0.874,0-1.715,0.037-2.523,0.109c0.36-0.434,0.563-0.917,0.609-1.449c0.625,0.091,1.279,0.137,1.963,0.137H273.475z"/>
	<path d="M280.92,196.969c0.084-0.576,0.23-1.07,0.439-1.482c3.77-2.125,5.654-4.165,5.654-6.12c0-0.617-0.21-1.119-0.63-1.506
		c-0.42-0.386-0.969-0.58-1.646-0.58c-0.437,0-0.886,0.057-1.348,0.17c-0.463,0.114-0.935,0.288-1.416,0.521
		c0.078-0.719,0.377-1.375,0.898-1.969c0.332-0.125,0.672-0.216,1.017-0.275c0.346-0.059,0.698-0.088,1.057-0.088
		c1.219,0,2.201,0.301,2.948,0.903c0.746,0.602,1.119,1.396,1.119,2.386c0,0.988-0.385,1.909-1.154,2.761s-2.197,1.945-4.283,3.278
		h0.361c1.962,0,3.826-0.286,5.591-0.857c-0.488,0.776-0.879,1.685-1.172,2.728c-0.795-0.08-1.87-0.12-3.225-0.12h-1.104
		C282.757,196.719,281.721,196.802,280.92,196.969z"/>
	<path d="M291.771,198.636c0.352-0.553,0.856-1.031,1.514-1.434c0.566,0.852,1.476,1.382,2.727,1.59
		c1.423-0.729,2.135-1.89,2.135-3.482c0-0.833-0.24-1.457-0.719-1.873c-0.479-0.416-1.201-0.625-2.166-0.625
		c-0.594,0-1.168,0.091-1.722,0.273l0.166-0.674c2.429-0.932,3.644-2.05,3.644-3.354c0-0.501-0.197-0.915-0.591-1.241
		c-0.395-0.326-0.895-0.489-1.5-0.489c-0.403,0-0.823,0.069-1.26,0.206s-0.886,0.342-1.349,0.616
		c0.163-0.774,0.459-1.471,0.89-2.089c0.299-0.143,0.63-0.249,0.991-0.317s0.754-0.103,1.177-0.103c1.035,0,1.88,0.252,2.535,0.757
		c0.654,0.505,0.981,1.158,0.981,1.959c0,1.166-0.762,2.191-2.285,3.077c1.021,0.228,1.789,0.62,2.3,1.176
		c0.511,0.557,0.767,1.28,0.767,2.171c0,1.548-0.766,2.758-2.295,3.63l-0.4,0.225c-0.547,0.312-1.071,0.719-1.572,1.22
		c-0.209,0.013-0.365,0.02-0.47,0.02C293.946,199.875,292.781,199.462,291.771,198.636z"/>
	<path d="M308.561,199.859v-4.266l-6.422-0.449c0.208-0.478,0.345-0.989,0.41-1.533c1.562-2.101,4.171-4.757,7.824-7.971v8.438
		l0.331,0.029c1.299,0.144,2.241,0.287,2.825,0.43c-0.507,0.404-0.841,0.961-1.004,1.671c-0.61-0.22-1.24-0.376-1.89-0.467
		l-0.263-0.039v2.985C309.941,198.883,309.338,199.273,308.561,199.859z M308.561,193.953v-5.668
		c-2.18,1.984-3.855,3.736-5.026,5.258L308.561,193.953z"/>
	<path d="M313.875,199.859l-0.195-0.957c3.311-0.618,4.967-1.956,4.967-4.012c0-1.067-0.467-1.931-1.4-2.592
		c-0.934-0.66-2.217-1.036-3.85-1.127l1.61-5.297h2.774c1.465,0,2.599-0.099,3.399-0.297c-0.54,0.605-0.964,1.247-1.27,1.923
		c-0.724,0.124-1.534,0.186-2.433,0.186h-2.014l-0.526,1.811c1.694,0.215,3.069,0.771,4.124,1.67
		c1.057,0.898,1.584,1.963,1.584,3.193C320.646,197.089,318.389,198.922,313.875,199.859z"/>
	<path d="M331.158,182.859l0.78,1.367c-4.127,1.023-6.19,3.372-6.19,7.048c0,1.225,0.275,2.199,0.826,2.922
		c0.552,0.723,1.293,1.085,2.227,1.085c0.646,0,1.184-0.218,1.614-0.656s0.646-0.979,0.646-1.625c0-0.783-0.29-1.424-0.871-1.923
		c-0.58-0.5-1.324-0.749-2.23-0.749c-0.222,0-0.457,0.026-0.704,0.079c0.28-0.651,0.665-1.176,1.154-1.573
		c0.332-0.045,0.586-0.068,0.763-0.068c0.977,0,1.817,0.335,2.521,1.007c0.704,0.671,1.056,1.47,1.056,2.396
		c0,0.685-0.135,1.222-0.405,1.613c-0.271,0.391-0.849,0.893-1.735,1.505l-0.576,0.411c-0.495,0.346-1.006,0.769-1.534,1.271
		c-1.511-0.222-2.668-0.725-3.469-1.509c-0.802-0.785-1.202-1.806-1.202-3.063c0-1.693,0.705-3.457,2.116-5.291
		S329.092,183.856,331.158,182.859z"/>
	<path d="M336.297,199.859l-0.01-0.362c0-1.929,0.75-4.142,2.25-6.638h-0.255c-1.156,0-2.112,0.108-2.87,0.323
		c0.234-0.402,0.562-0.811,0.984-1.226c0.614-0.117,1.297-0.175,2.049-0.175h0.766c0.904-1.487,1.86-2.932,2.868-4.334
		c-0.755,0.244-1.523,0.366-2.305,0.366c-0.657,0-1.179-0.029-1.562-0.085l-0.469-0.066c-0.3-0.045-0.668-0.067-1.104-0.067
		c-0.117,0-0.326,0.022-0.625,0.067c-0.267,0.239-0.624,0.586-1.072,1.039l-0.39-0.312c0.649-0.812,1.156-1.638,1.52-2.477
		c0.651-0.098,1.14-0.146,1.465-0.146c0.326,0,0.824,0.045,1.494,0.136l0.645,0.077c0.775,0.098,1.348,0.146,1.719,0.146
		c0.645,0,1.363-0.162,2.158-0.484v1.209c-1.145,1.228-2.192,2.872-3.143,4.932h0.488c1.086,0,1.971,0.1,2.654,0.301
		c-0.357,0.162-0.65,0.486-0.878,0.973c-0.54-0.131-1.229-0.196-2.069-0.196h-0.644c-0.897,2.073-1.347,3.643-1.347,4.712
		c0,0.476,0.035,0.834,0.107,1.075c-0.685,0.254-1.344,0.57-1.976,0.948C336.648,199.654,336.499,199.742,336.297,199.859z"/>
	<path d="M349.787,196.969c-1.445-0.111-2.529-0.426-3.252-0.947s-1.084-1.247-1.084-2.178c0-1.511,1.094-2.917,3.282-4.22
		c-1.74-0.964-2.61-1.961-2.61-2.991c0-0.938,0.715-1.785,2.145-2.541l0.39-0.206c0.325-0.176,0.802-0.518,1.433-1.026
		c1.203,0.169,2.106,0.502,2.709,0.997c0.602,0.496,0.902,1.154,0.902,1.974c0,1.187-0.804,2.232-2.411,3.138
		c2.056,1.14,3.083,2.354,3.083,3.644c0,1.271-0.824,2.303-2.474,3.097l-0.606,0.283
		C350.615,196.318,350.113,196.643,349.787,196.969z M349.29,189.976c-1.351,0.939-2.026,1.968-2.026,3.089
		c0,0.691,0.323,1.269,0.97,1.731s1.493,0.723,2.539,0.782c1.161-0.639,1.741-1.466,1.741-2.483c0-0.802-0.699-1.62-2.097-2.455
		L349.29,189.976z M350.705,188.636c0.955-0.77,1.434-1.503,1.434-2.2c0-0.528-0.289-0.992-0.868-1.394
		c-0.579-0.4-1.301-0.634-2.166-0.699c-0.748,0.535-1.122,1.085-1.122,1.652c0,0.398,0.115,0.719,0.346,0.963
		c0.231,0.244,0.806,0.663,1.723,1.256L350.705,188.636z"/>
	<path d="M357.346,199.734l-0.78-1.369c4.127-1.01,6.19-3.354,6.19-7.033c0-1.224-0.275-2.197-0.826-2.92
		c-0.552-0.723-1.297-1.084-2.236-1.084c-0.639,0-1.174,0.216-1.604,0.649s-0.646,0.975-0.646,1.625c0,0.774,0.29,1.411,0.871,1.912
		c0.58,0.501,1.32,0.751,2.221,0.751c0.222,0,0.46-0.029,0.714-0.088c-0.28,0.658-0.665,1.185-1.154,1.582
		c-0.325,0.045-0.58,0.068-0.763,0.068c-0.977,0-1.817-0.335-2.521-1.005c-0.704-0.67-1.056-1.467-1.056-2.391
		c0-0.683,0.135-1.222,0.405-1.615s0.846-0.896,1.726-1.508l0.586-0.41c0.476-0.332,0.986-0.751,1.534-1.259
		c1.505,0.221,2.659,0.724,3.464,1.509c0.805,0.784,1.207,1.805,1.207,3.062c0,1.693-0.704,3.455-2.111,5.284
		C361.158,197.325,359.418,198.738,357.346,199.734z"/>
	<path d="M373.256,179.828c0.699,0.104,1.428,0.156,2.187,0.156c0.98,0,1.854-0.052,2.619-0.156
		c-0.539,0.641-0.884,1.226-1.035,1.755c-0.444,0.059-0.804,0.088-1.079,0.088c-0.641,0-1.246-0.029-1.814-0.088
		c0.35,1.237,0.611,2.542,0.783,3.913s0.258,2.805,0.258,4.303c0,3.191-0.38,5.894-1.139,8.109c0.59-0.137,1.247-0.206,1.975-0.206
		c0.732,0,1.459,0.068,2.18,0.206c-0.414,0.499-0.703,1.077-0.867,1.732c-0.686-0.125-1.418-0.188-2.195-0.188
		c-1.085,0-1.992,0.062-2.721,0.188c0.762-1.901,1.143-4.639,1.143-8.213c0-1.627-0.095-3.262-0.283-4.902
		c-0.189-1.641-0.476-3.288-0.859-4.941C372.731,181.074,373.015,180.489,373.256,179.828z"/>
	<path d="M387.471,199.641c-0.699-0.094-1.421-0.141-2.167-0.141c-1.001,0-1.88,0.047-2.639,0.141
		c0.543-0.635,0.888-1.215,1.031-1.74c0.444-0.059,0.808-0.088,1.089-0.088c0.635,0,1.236,0.029,1.805,0.088
		c-0.691-2.456-1.037-5.191-1.037-8.207c0-3.185,0.379-5.891,1.136-8.118c-0.583,0.137-1.237,0.206-1.963,0.206
		c-0.739,0-1.469-0.068-2.188-0.206c0.412-0.504,0.701-1.086,0.864-1.748c0.687,0.135,1.419,0.203,2.197,0.203
		c1.085,0,1.992-0.068,2.722-0.203c-0.762,1.903-1.143,4.649-1.143,8.24c0,3.238,0.381,6.516,1.143,9.833
		C387.994,198.406,387.711,198.986,387.471,199.641z"/>
	<path d="M400.174,199.609c-1.186-0.645-2.119-1.738-2.799-3.281c-0.682-1.543-1.021-3.343-1.021-5.4
		c0-5.338,1.75-9.111,5.251-11.318l0.274,0.625c-2.601,1.693-3.9,4.811-3.9,9.355c0,2.266,0.35,4.144,1.049,5.635
		s1.672,2.435,2.92,2.832C401.464,198.369,400.873,198.887,400.174,199.609z"/>
	<path d="M409.543,179.609c1.184,0.645,2.117,1.74,2.8,3.286s1.024,3.345,1.024,5.396c0,5.332-1.751,9.105-5.252,11.318
		l-0.264-0.625c2.594-1.686,3.891-4.801,3.891-9.346c0-2.272-0.349-4.152-1.046-5.64s-1.672-2.43-2.923-2.827
		C408.275,180.84,408.865,180.319,409.543,179.609z"/>
	<path d="M425.499,199.609c-1.784-0.208-2.921-1.09-3.409-2.646c0.032-0.099,0.383-0.903,1.053-2.414l0.244-0.566
		c0.267-0.604,0.4-1.148,0.4-1.63c0-1.133-1.011-1.81-3.031-2.031c0.428-0.338,0.791-0.843,1.09-1.514
		c0.104,0.02,0.179,0.036,0.225,0.049c0.259,0.052,0.492,0.121,0.7,0.205c0.886-0.377,1.329-0.954,1.329-1.729
		c0-0.391-0.209-0.902-0.628-1.533l-0.235-0.352c-0.641-0.963-1.023-1.849-1.146-2.656c0.646-1.471,2.03-2.533,4.154-3.184
		l0.234,0.449c-1.628,0.742-2.441,1.582-2.441,2.52c0,0.358,0.172,0.83,0.518,1.416l0.37,0.615c0.533,0.905,0.8,1.527,0.8,1.865
		c0,0.977-0.705,1.95-2.117,2.92c1.131,0.41,1.695,1.09,1.695,2.041c0,0.443-0.177,0.996-0.529,1.66
		c-0.137,0.267-0.232,0.456-0.284,0.566l-0.206,0.449c-0.373,0.775-0.559,1.4-0.559,1.875c0,0.599,0.214,1.092,0.643,1.479
		c0.428,0.387,0.965,0.581,1.61,0.581c0.176,0,0.368-0.026,0.576-0.078C426.137,198.483,425.785,199.03,425.499,199.609z"/>
	<path d="M434.374,179.609c1.779,0.208,2.912,1.09,3.399,2.646c-0.032,0.104-0.383,0.908-1.051,2.412l-0.254,0.566
		c-0.266,0.605-0.398,1.149-0.398,1.631c0,1.139,1.016,1.816,3.047,2.031c-0.431,0.345-0.796,0.85-1.096,1.514
		c-0.104-0.02-0.183-0.036-0.234-0.049c-0.255-0.045-0.486-0.111-0.694-0.195c-0.88,0.365-1.319,0.938-1.319,1.719
		c0,0.397,0.209,0.908,0.625,1.533l0.234,0.352c0.639,0.957,1.02,1.842,1.144,2.656c-0.644,1.465-2.026,2.526-4.147,3.184
		l-0.234-0.449c1.627-0.742,2.441-1.576,2.441-2.5c0-0.365-0.172-0.843-0.518-1.436l-0.37-0.615c-0.533-0.905-0.8-1.527-0.8-1.865
		c0-0.97,0.7-1.943,2.102-2.92c-1.12-0.41-1.68-1.09-1.68-2.041c0-0.436,0.175-0.99,0.524-1.66c0.136-0.26,0.229-0.449,0.281-0.566
		l0.204-0.449c0.368-0.775,0.553-1.4,0.553-1.875c0-0.599-0.212-1.092-0.637-1.479c-0.424-0.387-0.961-0.581-1.61-0.581
		c-0.176,0-0.364,0.026-0.566,0.078C433.742,180.736,434.094,180.189,434.374,179.609z"/>
	<path d="M443.963,199.609c1.003-1.686,2.096-3.74,3.281-6.162l4.004-8.174c0.931-1.888,1.624-3.444,2.08-4.668
		c0.755-0.586,1.461-0.918,2.119-0.996c-0.527,0.879-1.068,1.865-1.621,2.959c-0.326,0.651-0.596,1.185-0.811,1.602
		c-0.437,0.846-0.707,1.38-0.811,1.602l-4.365,8.945c-0.619,1.263-1.172,2.578-1.66,3.945
		C445.555,198.773,444.816,199.088,443.963,199.609z"/>
	<path d="M465.771,199.609c-0.254-0.697-0.684-1.699-1.29-3.008c-0.084-0.189-0.364-0.817-0.84-1.885
		c-0.326-0.736-0.612-1.364-0.859-1.885l-3.146-6.543c-0.88-1.836-1.743-3.46-2.59-4.873c0.111-0.749,0.388-1.351,0.83-1.807
		c0.287,0.859,0.672,1.807,1.153,2.842c0.287,0.612,0.554,1.191,0.802,1.738c0.299,0.67,0.514,1.136,0.645,1.396l3.928,8.115
		c0.587,1.205,1.395,2.725,2.424,4.561C466.48,198.496,466.129,198.945,465.771,199.609z"/>
	<path d="M483.475,185.641v1.161l-8.255,4.136l8.255,4.126v1.17l-10.609-5.297L483.475,185.641z"/>
	<path d="M490.365,196.234v-1.161l8.255-4.136l-8.255-4.136v-1.161l10.609,5.297L490.365,196.234z"/>
	<path d="M511.618,191.592c-0.522,0.329-0.982,0.825-1.381,1.489c-0.881-0.391-1.475-0.85-1.781-1.377
		c0.183-0.962,0.747-2.061,1.694-3.296l0.47-0.614c0.81-1.021,1.214-1.766,1.214-2.233c0-0.599-0.313-1.099-0.939-1.502
		c-0.627-0.403-1.403-0.605-2.33-0.605c-0.131,0-0.343,0.016-0.637,0.049c0.391-0.444,0.711-0.959,0.959-1.546
		c0.247-0.033,0.485-0.049,0.714-0.049c1.18,0,2.167,0.29,2.962,0.868c0.796,0.579,1.193,1.297,1.193,2.156
		c0,0.91-0.567,1.817-1.701,2.721l-0.693,0.556c-0.894,0.715-1.34,1.31-1.34,1.785C510.021,190.708,510.554,191.241,511.618,191.592
		z M509.816,193.942c0.451,0.73,0.979,1.255,1.582,1.575c-0.609,0.313-1.137,0.835-1.582,1.566c-0.439-0.73-0.963-1.253-1.571-1.566
		C508.854,195.198,509.377,194.673,509.816,193.942z"/>
</g>
</svg>
